<?xml version="1.0" standalone="no"?>
<!DOCTYPE svg PUBLIC "-//W3C//DTD SVG 20010904//EN"
 "http://www.w3.org/TR/2001/REC-SVG-20010904/DTD/svg10.dtd">
<svg version="1.0" xmlns="http://www.w3.org/2000/svg"
 width="676.000000pt" height="900.000000pt" viewBox="0 0 676.000000 900.000000"
 preserveAspectRatio="xMidYMid meet">

<g transform="translate(0.000000,900.000000) scale(0.100000,-0.100000)"
fill="#000000" stroke="none">
<path d="M0 8799 c0 -188 1 -201 18 -194 43 18 138 27 165 16 56 -22 25 -51
-56 -51 -21 0 -58 -5 -82 -11 l-45 -11 0 -254 c1 -242 1 -254 19 -254 46 0
300 31 344 42 41 10 50 10 57 -2 6 -8 10 -73 10 -145 0 -71 3 -193 6 -270 l7
-140 -99 -14 c-54 -7 -107 -14 -117 -15 -15 -1 -19 -12 -22 -61 -4 -69 2 -85
30 -80 11 2 22 4 25 4 3 1 -2 6 -10 11 -12 8 -12 10 5 11 l20 0 -20 9 c-18 8
-17 9 6 9 26 1 45 -21 33 -40 -3 -5 33 -9 85 -9 l89 0 7 -41 c4 -23 4 -74 0
-115 -7 -73 -7 -74 -35 -74 -24 0 -30 -5 -35 -31 -6 -28 -9 -30 -38 -23 -63
13 -67 33 -28 115 11 21 16 41 13 44 -3 3 -70 2 -149 -1 -99 -5 -143 -4 -143
4 0 6 6 12 12 15 31 11 -2 15 -35 5 l-37 -11 0 -163 c0 -120 3 -164 13 -167 9
-4 9 -6 0 -6 -18 -1 -18 -287 -1 -294 10 -4 10 -6 1 -6 -10 -1 -13 -668 -13
-3301 l0 -3300 1290 0 c826 0 1290 3 1290 10 0 12 -38 80 -57 102 -19 22 -93
61 -93 49 0 -5 7 -24 15 -44 13 -31 13 -36 0 -47 -13 -10 -15 -8 -15 14 0 16
-5 26 -15 26 -8 0 -15 6 -15 13 0 8 -4 7 -11 -3 -9 -12 -10 -10 -5 9 3 14 -1
30 -10 38 -8 8 -14 30 -14 49 0 21 -10 50 -25 72 -14 20 -25 48 -25 62 0 14
-5 31 -12 38 -9 9 -8 12 7 12 14 0 16 3 7 8 -14 10 -52 80 -52 99 0 7 -8 17
-19 22 -12 7 -21 27 -26 58 -4 26 -15 62 -25 78 -10 17 -26 50 -35 75 -9 25
-20 54 -25 65 -4 11 -18 49 -30 85 -12 36 -30 74 -39 85 -9 11 -23 34 -30 50
-7 17 -17 37 -21 46 -21 41 -32 145 -27 242 5 99 29 207 46 207 5 0 35 -27 67
-61 85 -88 194 -173 261 -204 32 -15 72 -37 88 -50 40 -30 145 -85 161 -85 7
0 28 -13 46 -28 18 -15 44 -35 58 -45 14 -9 56 -39 94 -67 38 -27 75 -50 82
-50 15 0 89 130 188 330 43 85 94 180 115 210 21 30 54 81 74 112 21 32 41 58
45 58 5 0 19 -24 32 -52 13 -29 40 -89 60 -133 20 -44 47 -105 60 -135 12 -30
30 -73 40 -95 10 -22 37 -83 59 -135 23 -52 52 -115 65 -140 13 -25 27 -56 31
-70 4 -14 30 -71 56 -127 27 -57 49 -107 49 -113 0 -20 29 -12 165 50 64 29
196 89 250 115 28 13 84 31 125 41 41 9 89 23 105 29 17 7 46 18 65 25 78 27
98 37 166 81 38 25 86 49 106 53 20 3 56 22 81 41 25 19 50 35 55 35 5 0 15 7
22 15 7 8 20 15 30 15 9 0 33 10 52 23 18 13 49 29 66 35 18 6 46 20 61 32 40
28 48 26 62 -17 6 -21 26 -74 44 -118 17 -44 37 -102 45 -130 7 -27 23 -72 35
-100 12 -27 25 -57 29 -65 3 -8 4 -1 1 15 -6 28 -5 29 8 10 18 -25 88 -26 158
-2 l46 15 7 -81 c4 -45 4 -203 0 -352 -4 -148 -4 -300 0 -337 l8 -68 604 0
604 0 0 1550 0 1550 -30 0 c-40 0 -40 28 0 41 36 13 38 25 8 50 -17 16 -18 19
-5 19 10 0 17 7 17 15 0 8 -5 15 -11 15 -7 0 -9 10 -7 24 4 21 -5 28 -91 68
-53 25 -116 53 -141 63 -25 11 -52 25 -61 32 -8 7 -24 13 -33 13 -10 0 -31 9
-47 21 -16 11 -33 17 -39 14 -5 -3 -10 -1 -10 4 0 6 -8 11 -19 11 -10 0 -24 7
-31 15 -7 8 -19 15 -28 15 -8 0 -34 16 -58 35 -23 19 -48 35 -54 35 -7 0 -6 6
4 15 20 20 32 19 92 -9 28 -13 74 -27 102 -31 30 -4 67 -18 89 -33 39 -28 53
-35 138 -72 28 -12 68 -30 90 -40 40 -20 114 -50 121 -50 2 0 4 1267 4 2815
l0 2815 -186 0 -185 0 6 -382 c6 -392 32 -912 59 -1188 30 -304 35 -386 26
-456 -5 -38 -14 -206 -20 -373 -6 -168 -12 -306 -14 -308 -2 -2 -6 19 -10 47
-7 55 -20 58 -31 7 -4 -17 -12 -38 -17 -44 -7 -9 -5 -21 6 -38 20 -31 32 -32
43 -2 6 17 9 8 14 -38 3 -33 4 -63 2 -67 -2 -5 -23 -8 -46 -8 -23 -1 -61 -5
-84 -9 -50 -10 -53 -5 -17 24 28 22 43 75 44 153 0 65 -28 107 -44 65 -14 -39
-38 -73 -50 -73 -8 0 -17 -7 -20 -16 -13 -33 -15 -7 -2 29 7 20 14 35 17 33 2
-2 5 14 6 37 3 41 2 41 -11 17 l-14 -24 -4 24 c-2 14 0 37 5 51 4 15 7 85 5
157 -2 72 0 128 4 126 12 -8 19 55 8 75 -15 29 -21 27 -53 -19 -18 -25 -26
-47 -22 -59 8 -25 -23 -38 -32 -13 -16 40 -53 52 -53 17 0 -8 -7 -18 -15 -23
-9 -4 -24 -24 -34 -43 -11 -18 -24 -33 -30 -32 -6 2 -11 -2 -11 -8 0 -7 -10
-9 -25 -7 -34 7 -41 -7 -13 -26 l21 -15 -26 -10 c-15 -6 -27 -17 -27 -26 0
-33 -15 -12 -18 24 -3 43 21 114 48 146 27 31 47 76 55 122 4 23 15 53 26 67
10 13 19 27 19 31 0 4 14 23 31 42 34 39 34 55 -2 64 l-24 6 26 11 c25 10 26
13 18 59 -4 28 -3 66 3 90 8 35 7 50 -6 78 -10 19 -14 39 -11 44 3 5 1 12 -3
15 -12 7 -36 -39 -27 -53 4 -7 1 -18 -5 -27 -7 -8 -13 -32 -14 -54 -1 -48 -16
-51 -46 -10 -18 25 -26 29 -48 24 -15 -4 -32 -11 -39 -16 -19 -15 -34 1 -27
28 5 18 2 24 -10 24 -9 0 -16 5 -16 10 0 6 5 10 10 10 14 0 29 41 22 58 -3 9
-13 11 -28 8 -25 -7 -31 7 -15 33 8 12 12 12 24 2 21 -16 33 4 16 26 -9 10
-12 39 -10 89 1 40 0 78 -4 84 -10 15 -34 -19 -35 -48 0 -12 -5 -31 -11 -41
-9 -13 -9 -26 -1 -50 9 -26 9 -33 -3 -38 -8 -3 -15 -13 -15 -23 0 -11 -4 -21
-9 -24 -14 -9 -17 94 -4 133 17 47 17 84 1 79 -7 -3 -16 -24 -19 -49 -7 -53
-23 -95 -46 -117 -15 -16 -16 -14 -10 31 4 26 12 58 19 70 7 12 11 26 10 31
-2 5 0 16 4 25 4 9 8 32 8 51 1 23 5 34 14 32 8 -1 11 1 8 6 -7 11 22 93 40
113 20 22 18 28 -7 22 -17 -5 -20 -2 -16 13 3 10 9 34 12 53 5 22 10 29 15 21
5 -9 14 -3 31 19 23 31 23 31 41 11 10 -11 22 -20 26 -20 13 1 77 39 66 40
-16 0 -26 43 -13 51 8 4 8 18 0 44 -11 41 -8 55 15 55 8 0 14 6 14 13 0 8 9
22 20 32 26 24 26 55 0 55 -13 0 -18 5 -14 15 5 13 1 13 -32 -1 -22 -9 -51
-16 -67 -16 -15 0 -27 -4 -27 -10 0 -11 -49 -3 -62 10 -11 12 -16 80 -6 90 6
6 -1 15 -21 25 -25 12 -31 13 -35 1 -12 -32 -27 -13 -22 29 2 23 5 48 5 55 1
6 6 12 12 12 13 0 69 55 69 68 0 5 -9 17 -20 27 -15 14 -17 21 -9 32 6 7 17
13 23 13 20 1 64 54 71 88 6 30 5 32 -19 32 -25 0 -31 12 -27 48 1 9 -4 7 -17
-4 -16 -13 -19 -26 -15 -64 3 -33 0 -50 -10 -58 -15 -13 -47 -6 -47 9 0 20
-25 6 -69 -40 -40 -42 -50 -47 -70 -39 -16 5 -28 5 -35 -2 -5 -5 -17 -10 -26
-10 -12 1 -12 3 3 14 11 8 17 23 15 37 -7 48 -32 65 -43 29 -3 -11 -14 -20
-22 -20 -9 0 -13 3 -10 7 4 3 -1 12 -10 19 -10 7 -18 26 -18 45 0 18 -5 34
-12 36 -8 3 -10 -9 -7 -36 2 -23 -1 -41 -6 -41 -6 0 -10 -12 -10 -26 0 -18 4
-25 14 -21 11 4 13 -4 10 -36 -2 -23 -4 -51 -3 -62 1 -46 -6 -103 -14 -112 -4
-3 -3 -11 2 -17 19 -23 23 -82 7 -95 -9 -7 -21 -31 -26 -53 -9 -32 -15 -39
-32 -36 -12 2 -26 12 -32 23 -6 10 -21 36 -34 57 -21 36 -21 40 -7 61 8 12 15
28 15 35 0 12 -5 11 -25 -2 -23 -15 -25 -15 -35 3 -7 13 -7 22 0 26 6 4 7 13
2 22 -10 17 -4 61 9 69 5 3 9 28 9 55 0 54 -14 59 -24 8 -7 -38 -15 -34 -26
17 -7 31 -4 46 17 88 16 32 27 70 28 101 0 28 11 71 22 97 12 26 25 64 29 85
9 51 34 93 56 93 11 0 18 7 18 20 0 20 -7 20 -365 20 l-365 0 -2 -67 c-2 -94
-1 -93 -18 -103 -12 -7 -12 -13 -1 -33 18 -33 9 -45 -31 -43 l-33 2 -3 122 -3
122 -65 0 c-55 0 -64 -2 -62 -17 3 -19 -35 -43 -71 -43 -13 0 -21 3 -18 6 3 4
2 15 -4 26 -7 14 -16 17 -31 12 -37 -11 -48 -27 -29 -42 9 -7 10 -10 3 -7 -8
4 -24 3 -35 -3 -29 -15 -187 -43 -199 -36 -5 3 -14 1 -21 -4 -7 -6 -28 -12
-47 -15 -19 -3 -71 -13 -114 -21 -123 -25 -163 -28 -163 -14 0 7 -4 25 -8 41
-6 21 -4 27 9 28 19 2 26 4 47 13 8 4 43 8 76 9 33 1 59 5 56 10 -2 4 2 7 11
7 8 0 16 5 18 11 2 7 33 17 68 24 56 11 -21 13 -533 14 l-597 1 5 -27 c2 -16
9 -43 14 -60 5 -18 8 -33 5 -33 -2 0 3 -11 12 -25 19 -29 14 -38 -21 -42 -31
-5 -32 5 -2 17 21 8 20 9 -7 9 -24 1 -27 3 -16 16 10 12 10 15 -1 15 -8 0 -21
-5 -29 -10 -13 -9 -13 -10 0 -10 12 -1 12 -3 -3 -14 -17 -13 -17 -14 0 -20 15
-6 15 -8 3 -16 -8 -6 -23 -10 -32 -10 -14 0 -17 7 -14 31 3 29 2 31 -25 25
-16 -3 -29 -1 -29 4 0 6 11 10 24 10 26 0 40 12 28 24 -4 4 -7 19 -7 32 -1 27
-20 34 -20 7 0 -9 -5 -18 -11 -20 -6 -2 -11 14 -11 41 -1 38 2 46 21 49 11 2
-25 5 -81 6 -104 1 -108 -1 -104 -36 1 -7 -7 -13 -19 -13 -11 0 -20 -4 -20 -9
0 -5 9 -7 20 -4 18 5 20 1 18 -36 -1 -26 -6 -41 -14 -41 -7 0 -16 -5 -20 -11
-4 -8 0 -9 15 -4 12 4 21 2 21 -4 0 -6 -6 -11 -14 -11 -8 0 -18 -5 -22 -11 -4
-8 0 -9 15 -4 12 4 21 2 21 -4 0 -6 -6 -11 -14 -11 -8 0 -18 -5 -21 -10 -4 -7
2 -9 19 -4 36 9 32 -3 -6 -21 -32 -15 -32 -15 -5 -11 15 2 27 0 27 -4 0 -9
-36 -20 -65 -20 -17 0 -18 2 -5 11 11 7 0 8 -38 4 -41 -6 -52 -4 -50 7 2 9 -6
12 -27 11 l-30 -2 28 12 c35 14 35 25 0 21 l-28 -4 30 15 30 14 -30 1 -30 2
28 12 c28 12 28 30 -1 19 -10 -4 -13 -2 -8 5 4 7 13 12 20 12 7 0 12 10 10 23
-1 12 -3 41 -3 64 l-1 42 -383 -2 -382 -2 2 -80 c1 -44 7 -116 12 -160 10 -77
18 -204 26 -425 3 -94 9 -191 20 -317 3 -42 2 -43 -23 -37 -36 9 -43 14 -37
24 3 4 0 55 -6 112 -6 56 -11 122 -11 145 -1 30 -5 40 -15 36 -9 -4 -11 0 -7
11 3 9 3 28 -1 43 -5 21 -8 24 -16 12 -7 -11 -9 -9 -9 8 0 12 8 29 17 39 22
22 25 40 7 55 -10 8 -11 16 -3 30 8 16 17 178 23 420 2 98 83 89 -830 89
l-804 0 0 -201z m2327 185 c-3 -3 -12 -4 -19 -1 -8 3 -5 6 6 6 11 1 17 -2 13
-5z m-1392 -34 c12 0 25 -6 28 -14 5 -12 -3 -14 -36 -13 -32 2 -43 6 -45 21
-3 14 0 17 13 12 9 -3 27 -6 40 -6z m1392 4 c-3 -3 -12 -4 -19 -1 -8 3 -5 6 6
6 11 1 17 -2 13 -5z m0 -30 c-3 -3 -12 -4 -19 -1 -8 3 -5 6 6 6 11 1 17 -2 13
-5z m2183 -4 c0 -5 -5 -10 -11 -10 -5 0 -7 5 -4 10 3 6 8 10 11 10 2 0 4 -4 4
-10z m-827 -62 c7 -57 -8 -65 -17 -10 -9 53 -8 78 3 67 5 -6 11 -31 14 -57z
m-63 31 c0 -5 -8 -10 -17 -10 -17 -1 -17 -2 0 -6 34 -9 10 -33 -34 -33 -24 0
-25 17 -1 23 11 3 8 5 -9 6 -14 0 -40 -4 -58 -10 -18 -6 -35 -8 -39 -5 -10 11
20 26 54 26 16 0 34 4 40 9 20 20 64 20 64 0z m-1545 1 c-3 -5 -14 -10 -23
-10 -15 0 -15 2 -2 10 20 13 33 13 25 0z m700 -9 c-3 -6 -14 -11 -23 -11 -15
1 -15 2 2 15 21 16 32 13 21 -4z m1324 -48 c-1 -27 -7 -51 -13 -55 -7 -5 -5
-8 5 -8 12 0 15 -12 14 -62 -2 -57 -4 -63 -26 -69 -36 -10 -49 -10 -49 1 0 6
8 10 18 11 12 0 10 3 -8 10 -24 10 -24 11 -6 25 19 13 19 14 2 14 -15 0 -16 3
-7 14 9 10 9 16 1 21 -8 5 -8 10 0 20 8 10 7 15 -2 19 -10 5 -10 7 1 12 11 5
11 8 0 15 -11 8 -10 12 5 24 17 13 18 15 3 15 -43 0 1 38 46 39 14 1 17 -7 16
-46z m-2029 27 c-8 -5 -19 -10 -25 -10 -5 0 -3 5 5 10 8 5 20 10 25 10 6 0 3
-5 -5 -10z m920 -25 c0 -8 -6 -15 -14 -15 -17 0 -28 14 -19 24 12 12 33 6 33
-9z m160 5 c0 -6 11 -8 25 -4 23 6 25 3 25 -25 0 -32 1 -32 -64 -36 -27 -2
-28 -1 -11 11 10 8 14 14 8 14 -6 0 -10 11 -9 25 1 23 26 37 26 15z m110 -5
l-25 -14 23 -1 c13 0 20 -4 17 -10 -3 -5 -17 -10 -31 -10 -14 0 -23 4 -19 9 3
5 1 12 -5 16 -18 11 0 25 33 25 l32 -1 -25 -14z m270 5 c0 -5 -3 -10 -7 -10
-5 0 -18 -3 -30 -6 -13 -4 -23 -2 -23 4 0 10 19 18 48 21 6 0 12 -3 12 -9z
m-1453 -6 c-3 -3 -12 -4 -19 -1 -8 3 -5 6 6 6 11 1 17 -2 13 -5z m1263 -4 c0
-5 -9 -10 -21 -10 -11 0 -17 5 -14 10 3 6 13 10 21 10 8 0 14 -4 14 -10z m285
1 c7 -12 -3 -18 -37 -22 -33 -5 -38 14 -6 23 34 9 36 9 43 -1z m-840 -11 c-3
-5 -15 -10 -26 -10 -11 0 -17 5 -14 10 3 6 15 10 26 10 11 0 17 -4 14 -10z
m325 -16 c0 -16 -28 -18 -49 -5 -7 5 -11 13 -8 19 9 14 57 2 57 -14z m335 17
c-15 -15 -65 -25 -65 -13 0 13 17 20 50 21 15 1 20 -3 15 -8z m83 -13 c-3 -7
-20 -14 -39 -15 l-34 -2 30 14 c38 18 48 18 43 3z m322 4 c0 -5 -12 -13 -27
-20 l-28 -12 28 4 c19 2 27 -1 27 -11 0 -9 -6 -13 -14 -10 -7 3 -17 2 -22 -3
-13 -13 -63 -16 -64 -5 -1 6 9 13 22 17 22 6 21 6 -4 7 -16 1 -28 5 -28 11 0
9 17 15 70 23 14 3 28 5 33 6 4 0 7 -3 7 -7z m-1773 -8 c-3 -3 -12 -4 -19 -1
-8 3 -5 6 6 6 11 1 17 -2 13 -5z m1283 -4 c0 -5 -15 -10 -32 -9 -28 0 -30 2
-13 9 28 12 45 12 45 0z m-1093 -6 c-3 -3 -12 -4 -19 -1 -8 3 -5 6 6 6 11 1
17 -2 13 -5z m518 -4 c-3 -5 -16 -10 -28 -10 -18 0 -19 2 -7 10 20 13 43 13
35 0z m154 6 c-2 -2 -17 -6 -34 -10 -22 -5 -26 -4 -15 4 14 9 59 15 49 6z
m511 -6 c0 -5 -15 -10 -32 -9 -28 0 -30 2 -13 9 28 12 45 12 45 0z m180 5 c0
-3 -10 -10 -22 -15 l-23 -9 23 0 c50 -2 9 -31 -43 -31 -20 1 -20 1 -1 15 17
13 18 15 3 15 -22 0 -22 17 1 23 25 7 62 8 62 2z m-1295 -15 c-3 -5 -14 -10
-23 -10 -15 0 -15 2 -2 10 20 13 33 13 25 0z m1385 0 c0 -12 -42 -23 -67 -17
-15 3 -14 5 7 15 32 14 60 15 60 2z m-1647 -7 c-7 -2 -19 -2 -25 0 -7 3 -2 5
12 5 14 0 19 -2 13 -5z m777 -3 c-20 -13 -50 -13 -50 0 0 6 15 10 33 10 24 0
28 -3 17 -10z m685 1 c-15 -13 -65 -23 -65 -12 0 12 18 19 50 20 14 1 20 -3
15 -8z m-1268 -7 c-3 -3 -12 -4 -19 -1 -8 3 -5 6 6 6 11 1 17 -2 13 -5z m518
-4 c-3 -5 -16 -10 -28 -10 -18 0 -19 2 -7 10 20 13 43 13 35 0z m280 0 c-3 -5
-10 -10 -16 -10 -5 0 -9 5 -9 10 0 6 7 10 16 10 8 0 12 -4 9 -10z m-980 -10
c-3 -5 -14 -10 -23 -10 -15 0 -15 2 -2 10 20 13 33 13 25 0z m1635 -4 c0 -16
-60 -28 -74 -16 -5 5 6 13 25 18 47 14 49 14 49 -2z m-190 -6 c0 -5 -9 -10
-21 -10 -11 0 -17 5 -14 10 3 6 13 10 21 10 8 0 14 -4 14 -10z m320 0 c0 -10
-99 -35 -107 -26 -10 9 3 18 39 25 49 10 68 11 68 1z m-1443 -6 c-3 -3 -12 -4
-19 -1 -8 3 -5 6 6 6 11 1 17 -2 13 -5z m1221 -6 c-6 -16 -34 -22 -56 -12 -14
6 -13 8 8 14 38 12 52 11 48 -2z m-1548 -8 c-20 -13 -33 -13 -25 0 3 6 14 10
23 10 15 0 15 -2 2 -10z m140 6 c0 -2 -9 -6 -20 -9 -11 -3 -18 -1 -14 4 5 9
34 13 34 5z m130 0 c0 -2 -9 -6 -20 -9 -11 -3 -18 -1 -14 4 5 9 34 13 34 5z
m130 -6 c-20 -13 -43 -13 -35 0 3 6 16 10 28 10 18 0 19 -2 7 -10z m80 -10 c0
-5 -12 -10 -27 -9 -25 0 -26 1 -8 9 27 12 35 12 35 0z m1165 1 c-15 -14 -75
-24 -75 -13 0 13 18 20 55 21 17 1 25 -3 20 -8z m123 -3 c-3 -7 -10 -13 -16
-13 -7 0 -11 -4 -10 -10 0 -5 10 -9 21 -7 12 2 17 -1 13 -7 -4 -6 -14 -11 -22
-11 -8 0 -14 -5 -14 -11 0 -6 9 -8 20 -4 11 3 20 4 20 1 0 -9 -70 -36 -91 -36
-31 0 -22 18 14 26 l32 8 -40 6 -40 6 35 11 35 11 -34 1 c-45 1 -30 16 29 29
25 5 47 10 48 11 2 1 2 -5 0 -11z m-1831 -4 c-3 -3 -12 -4 -19 -1 -8 3 -5 6 6
6 11 1 17 -2 13 -5z m120 0 c-3 -3 -12 -4 -19 -1 -8 3 -5 6 6 6 11 1 17 -2 13
-5z m136 -1 c-7 -2 -19 -2 -25 0 -7 3 -2 5 12 5 14 0 19 -2 13 -5z m134 1 c-3
-3 -12 -4 -19 -1 -8 3 -5 6 6 6 11 1 17 -2 13 -5z m-327 -14 c-19 -13 -30 -13
-30 0 0 6 10 10 23 10 18 0 19 -2 7 -10z m400 0 c-20 -13 -43 -13 -35 0 3 6
16 10 28 10 18 0 19 -2 7 -10z m-65 -10 c3 -6 -4 -10 -17 -10 -18 0 -20 2 -8
10 19 12 18 12 25 0z m145 0 c0 -5 -12 -10 -27 -9 -25 0 -26 1 -8 9 27 12 35
12 35 0z m1170 5 c0 -2 -9 -9 -20 -15 -24 -13 -50 -2 -29 11 15 9 49 12 49 4z
m-1713 -11 c-3 -3 -12 -4 -19 -1 -8 3 -5 6 6 6 11 1 17 -2 13 -5z m250 0 c-3
-3 -12 -4 -19 -1 -8 3 -5 6 6 6 11 1 17 -2 13 -5z m-177 -8 c0 -2 -9 -6 -20
-9 -11 -3 -18 -1 -14 4 5 9 34 13 34 5z m380 -6 c-20 -13 -33 -13 -25 0 3 6
14 10 23 10 15 0 15 -2 2 -10z m90 -10 c0 -5 -12 -10 -27 -9 -25 0 -26 1 -8 9
27 12 35 12 35 0z m-423 -6 c-3 -3 -12 -4 -19 -1 -8 3 -5 6 6 6 11 1 17 -2 13
-5z m270 0 c-3 -3 -12 -4 -19 -1 -8 3 -5 6 6 6 11 1 17 -2 13 -5z m-320 -10
c-3 -3 -12 -4 -19 -1 -8 3 -5 6 6 6 11 1 17 -2 13 -5z m260 0 c-3 -3 -12 -4
-19 -1 -8 3 -5 6 6 6 11 1 17 -2 13 -5z m143 2 c0 -2 -9 -6 -20 -9 -11 -3 -20
-1 -20 4 0 5 9 9 20 9 11 0 20 -2 20 -4z m-75 -16 c-3 -5 -14 -10 -23 -10 -15
0 -15 2 -2 10 20 13 33 13 25 0z m145 0 c0 -5 -12 -10 -27 -9 -25 0 -26 1 -8
9 27 12 35 12 35 0z m1540 1 c0 -11 -25 -21 -53 -21 -35 0 -1 22 46 29 4 0 7
-3 7 -8z m-2017 -18 c-7 -2 -19 -2 -25 0 -7 3 -2 5 12 5 14 0 19 -2 13 -5z
m264 1 c-3 -3 -12 -4 -19 -1 -8 3 -5 6 6 6 11 1 17 -2 13 -5z m136 -1 c-7 -2
-19 -2 -25 0 -7 3 -2 5 12 5 14 0 19 -2 13 -5z m1359 -5 c-13 -7 -21 -17 -18
-25 4 -8 -2 -13 -17 -13 -17 0 -19 2 -8 9 11 7 7 10 -15 13 l-29 4 25 11 c14
7 39 12 55 12 29 0 29 -1 7 -11z m-1815 -4 c-3 -3 -12 -4 -19 -1 -8 3 -5 6 6
6 11 1 17 -2 13 -5z m383 -4 c0 -5 -5 -10 -11 -10 -5 0 -7 5 -4 10 3 6 8 10
11 10 2 0 4 -4 4 -10z m145 0 c-3 -5 -14 -10 -23 -10 -15 0 -15 2 -2 10 20 13
33 13 25 0z m-470 -10 c-3 -5 -14 -10 -23 -9 -14 0 -13 2 3 9 27 11 27 11 20
0z m2010 1 c-15 -13 -65 -23 -65 -12 0 10 22 18 55 20 11 1 15 -3 10 -8z
m-1878 -7 c-3 -3 -12 -4 -19 -1 -8 3 -5 6 6 6 11 1 17 -2 13 -5z m258 -4 c-28
-12 -37 -12 -30 0 3 6 16 10 28 9 21 0 21 -1 2 -9z m1385 6 c0 -3 -4 -8 -10
-11 -5 -3 -10 -1 -10 4 0 6 5 11 10 11 6 0 10 -2 10 -4z m-2903 -28 c-3 -8 -6
-5 -6 6 -1 11 2 17 5 13 3 -3 4 -12 1 -19z m1458 12 c-3 -5 -11 -10 -16 -10
-6 0 -7 5 -4 10 3 6 11 10 16 10 6 0 7 -4 4 -10z m-325 -10 c-8 -5 -19 -10
-25 -10 -5 0 -3 5 5 10 8 5 20 10 25 10 6 0 3 -5 -5 -10z m2010 1 c0 -11 -25
-21 -53 -21 -35 0 -1 22 46 29 4 0 7 -3 7 -8z m-245 -11 c3 -5 1 -10 -4 -10
-6 0 -11 5 -11 10 0 6 2 10 4 10 3 0 8 -4 11 -10z m-1435 -4 c0 -2 -7 -7 -16
-10 -8 -3 -12 -2 -9 4 6 10 25 14 25 6z m2757 -28 c-3 -7 -5 -2 -5 12 0 14 2
19 5 13 2 -7 2 -19 0 -25z m-3077 18 c0 -2 -7 -6 -15 -10 -8 -3 -15 -1 -15 4
0 6 7 10 15 10 8 0 15 -2 15 -4z m2010 -11 c0 -8 -6 -15 -12 -15 -8 0 -9 -3
-3 -8 6 -4 11 -19 12 -34 1 -24 -4 -28 -34 -34 -36 -7 -56 2 -34 15 10 7 11
10 1 16 -10 6 -9 11 4 20 15 12 15 13 -1 20 -15 6 -12 10 17 20 46 18 50 18
50 0z m-1823 -11 c-3 -3 -12 -4 -19 -1 -8 3 -5 6 6 6 11 1 17 -2 13 -5z m140
0 c-3 -3 -12 -4 -19 -1 -8 3 -5 6 6 6 11 1 17 -2 13 -5z m1433 2 c0 -3 -4 -8
-10 -11 -5 -3 -10 -1 -10 4 0 6 5 11 10 11 6 0 10 -2 10 -4z m-1773 -12 c-3
-3 -12 -4 -19 -1 -8 3 -5 6 6 6 11 1 17 -2 13 -5z m6 -31 c-7 -2 -19 -2 -25 0
-7 3 -2 5 12 5 14 0 19 -2 13 -5z m3477 -17 c0 -3 -4 -8 -10 -11 -5 -3 -10 -1
-10 4 0 6 5 11 10 11 6 0 10 -2 10 -4z m-3483 -12 c-3 -3 -12 -4 -19 -1 -8 3
-5 6 6 6 11 1 17 -2 13 -5z m3 -24 c-8 -5 -19 -10 -25 -10 -5 0 -3 5 5 10 8 5
20 10 25 10 6 0 3 -5 -5 -10z m127 -6 c-3 -3 -12 -4 -19 -1 -8 3 -5 6 6 6 11
1 17 -2 13 -5z m140 0 c-3 -3 -12 -4 -19 -1 -8 3 -5 6 6 6 11 1 17 -2 13 -5z
m1738 -4 c-28 -12 -67 -12 -60 0 3 6 23 10 43 9 30 0 33 -2 17 -9z m-3549 -9
c-4 -5 0 -11 6 -14 7 -2 9 -8 5 -13 -4 -5 -12 -2 -17 6 -13 20 -12 30 1 30 5
0 8 -4 5 -9z m794 -1 c0 -5 -5 -10 -11 -10 -5 0 -7 5 -4 10 3 6 8 10 11 10 2
0 4 -4 4 -10z m817 4 c-3 -3 -12 -4 -19 -1 -8 3 -5 6 6 6 11 1 17 -2 13 -5z
m-54 -11 c-7 -2 -19 -2 -25 0 -7 3 -2 5 12 5 14 0 19 -2 13 -5z m254 -9 c-3
-3 -12 -4 -19 -1 -8 3 -5 6 6 6 11 1 17 -2 13 -5z m1748 -3 c-15 -13 -65 -23
-65 -12 0 12 18 19 50 20 14 1 20 -3 15 -8z m-3587 -18 c5 -18 -10 -16 -34 2
-18 15 -18 15 5 13 14 -2 26 -9 29 -15z m1585 0 c-7 -2 -21 -2 -30 0 -10 3 -4
5 12 5 17 0 24 -2 18 -5z m194 -19 c-3 -3 -12 -4 -19 -1 -8 3 -5 6 6 6 11 1
17 -2 13 -5z m1798 -4 c-28 -12 -55 -12 -55 0 0 6 17 10 38 9 30 0 33 -2 17
-9z m-2002 -7 c-7 -2 -19 -2 -25 0 -7 3 -2 5 12 5 14 0 19 -2 13 -5z m1154 -5
c18 -7 33 -16 33 -20 0 -5 9 -4 19 2 40 21 111 0 111 -33 0 -16 51 -97 87
-138 7 -9 13 -20 12 -25 -3 -20 2 -33 31 -69 17 -21 30 -48 30 -61 0 -26 20
-74 30 -74 9 0 21 -81 25 -170 2 -36 10 -81 18 -100 8 -19 18 -60 21 -90 7
-59 -8 -163 -24 -168 -15 -5 -42 -61 -35 -72 3 -6 0 -19 -9 -31 -9 -14 -12
-33 -9 -55 3 -19 1 -34 -4 -34 -6 0 -10 14 -11 31 -1 34 -12 52 -19 32 -3 -7
-9 -13 -14 -13 -6 0 -20 -9 -31 -20 -14 -12 -25 -17 -31 -11 -14 14 -57 -70
-46 -90 6 -12 -2 -19 -37 -34 -49 -20 -50 -22 -30 -51 8 -11 16 -35 18 -54 l3
-35 -78 -14 c-67 -13 -78 -18 -83 -38 -4 -13 -10 -23 -15 -23 -5 0 -9 -8 -9
-19 0 -22 -57 -35 -77 -19 -9 7 -15 6 -19 -5 -6 -17 -40 -33 -60 -29 -7 1 -14
-5 -18 -14 -6 -17 -45 -11 -58 10 -4 6 -8 7 -8 3 0 -4 -12 3 -26 17 l-27 24
49 46 c26 25 51 46 56 46 4 0 8 9 8 20 0 18 -7 20 -76 20 -41 0 -84 5 -95 11
-13 7 -24 7 -32 1 -8 -7 -23 -2 -46 13 l-34 24 29 8 c16 4 34 6 41 5 6 -1 14
2 18 8 6 10 -39 15 -92 10 -13 -1 -23 1 -23 3 0 17 14 37 26 37 8 0 14 4 14 9
0 5 26 13 58 17 86 10 105 19 58 28 -31 6 -35 10 -26 22 10 11 9 14 -6 14 -16
0 -15 2 5 16 16 11 49 18 103 19 52 2 83 8 91 17 7 7 11 11 10 9 -2 -2 7 -12
19 -23 l21 -18 -21 -20 c-12 -11 -28 -20 -37 -20 -8 0 -15 -4 -15 -8 0 -8 82
-9 109 -1 23 7 23 -17 -1 -29 l-23 -11 23 0 c13 -1 37 6 53 15 28 14 32 14 50
-2 10 -9 19 -23 19 -30 0 -17 55 -43 70 -34 10 6 10 18 2 49 -8 33 -7 44 4 56
13 12 13 21 2 59 -16 56 -59 103 -120 135 -39 20 -47 5 -15 -25 33 -30 33 -34
5 -34 -13 0 -45 -3 -73 -8 -27 -4 -112 -6 -187 -4 -109 3 -135 7 -131 18 3 8
-12 21 -42 35 -70 33 -76 65 -24 126 15 17 30 46 34 65 4 18 13 53 21 77 18
54 7 94 -39 142 -30 31 -49 61 -51 82 -2 13 -29 27 -53 27 -31 0 -51 35 -58
100 -4 30 -11 60 -17 67 -7 9 -7 17 2 28 7 8 9 15 4 15 -5 0 -1 5 9 11 9 5 17
15 17 21 0 16 31 48 46 48 8 0 58 21 111 46 131 62 314 125 388 134 33 4 62 8
64 8 3 1 20 -3 38 -10z m2300 -10 c-3 -8 -6 -5 -6 6 -1 11 2 17 5 13 3 -3 4
-12 1 -19z m-3510 6 c-3 -3 -12 -4 -19 -1 -8 3 -5 6 6 6 11 1 17 -2 13 -5z
m63 -14 c-20 -13 -33 -13 -25 0 3 6 14 10 23 10 15 0 15 -2 2 -10z m193 3 c-7
-2 -19 -2 -25 0 -7 3 -2 5 12 5 14 0 19 -2 13 -5z m1812 -2 c-15 -13 -65 -23
-65 -12 0 12 18 19 50 20 14 1 20 -3 15 -8z m-3950 -11 c-11 -5 -29 -8 -40 -8
-16 0 -15 2 5 8 34 11 60 11 35 0z m2072 4 c-3 -3 -12 -4 -19 -1 -8 3 -5 6 6
6 11 1 17 -2 13 -5z m-60 -10 c-3 -3 -12 -4 -19 -1 -8 3 -5 6 6 6 11 1 17 -2
13 -5z m-57 -8 c0 -2 -9 -6 -20 -9 -11 -3 -20 -1 -20 4 0 5 9 9 20 9 11 0 20
-2 20 -4z m1984 -5 c3 -5 -8 -11 -24 -13 -35 -5 -41 8 -7 15 12 2 23 5 24 6 1
0 4 -3 7 -8z m-3974 -11 c0 -5 -5 -10 -11 -10 -5 0 -7 5 -4 10 3 6 8 10 11 10
2 0 4 -4 4 -10z m2107 4 c-3 -3 -12 -4 -19 -1 -8 3 -5 6 6 6 11 1 17 -2 13 -5z
m-60 -10 c-3 -3 -12 -4 -19 -1 -8 3 -5 6 6 6 11 1 17 -2 13 -5z m-64 -11 c-7
-2 -19 -2 -25 0 -7 3 -2 5 12 5 14 0 19 -2 13 -5z m-56 -9 c-3 -3 -12 -4 -19
-1 -8 3 -5 6 6 6 11 1 17 -2 13 -5z m180 0 c-3 -3 -12 -4 -19 -1 -8 3 -5 6 6
6 11 1 17 -2 13 -5z m3533 -4 c0 -5 -2 -10 -4 -10 -3 0 -8 5 -11 10 -3 6 -1
10 4 10 6 0 11 -4 11 -10z m-3663 -16 c-3 -3 -12 -4 -19 -1 -8 3 -5 6 6 6 11
1 17 -2 13 -5z m258 -14 c-3 -5 -12 -10 -18 -10 -7 0 -6 4 3 10 19 12 23 12
15 0z m-258 -16 c-3 -3 -12 -4 -19 -1 -8 3 -5 6 6 6 11 1 17 -2 13 -5z m-1937
-50 c0 -19 -5 -24 -25 -24 -20 0 -25 5 -25 24 0 13 6 26 13 29 22 7 37 -4 37
-29z m1950 32 c0 -2 -7 -6 -15 -10 -8 -3 -15 -1 -15 4 0 6 7 10 15 10 8 0 15
-2 15 -4z m193 -3 c-7 -2 -19 -2 -25 0 -7 3 -2 5 12 5 14 0 19 -2 13 -5z
m-126 -19 c-3 -3 -12 -4 -19 -1 -8 3 -5 6 6 6 11 1 17 -2 13 -5z m-240 -10
c-3 -3 -12 -4 -19 -1 -8 3 -5 6 6 6 11 1 17 -2 13 -5z m176 -1 c-7 -2 -19 -2
-25 0 -7 3 -2 5 12 5 14 0 19 -2 13 -5z m190 0 c-7 -2 -19 -2 -25 0 -7 3 -2 5
12 5 14 0 19 -2 13 -5z m-256 -9 c-3 -3 -12 -4 -19 -1 -8 3 -5 6 6 6 11 1 17
-2 13 -5z m190 0 c-3 -3 -12 -4 -19 -1 -8 3 -5 6 6 6 11 1 17 -2 13 -5z m-64
-11 c-7 -2 -19 -2 -25 0 -7 3 -2 5 12 5 14 0 19 -2 13 -5z m-66 -9 c-3 -3 -12
-4 -19 -1 -8 3 -5 6 6 6 11 1 17 -2 13 -5z m190 0 c-3 -3 -12 -4 -19 -1 -8 3
-5 6 6 6 11 1 17 -2 13 -5z m2859 -43 c-15 -15 -16 -13 -4 19 9 26 13 30 16
16 2 -10 -3 -26 -12 -35z m-3109 33 c-3 -3 -12 -4 -19 -1 -8 3 -5 6 6 6 11 1
17 -2 13 -5z m190 0 c-3 -3 -12 -4 -19 -1 -8 3 -5 6 6 6 11 1 17 -2 13 -5z
m3193 -20 c0 -18 -24 -18 -39 0 -10 11 -8 15 6 18 23 6 33 0 33 -18z m-3320 6
c-8 -5 -19 -10 -25 -10 -5 0 -3 5 5 10 8 5 20 10 25 10 6 0 3 -5 -5 -10z m63
3 c-7 -2 -19 -2 -25 0 -7 3 -2 5 12 5 14 0 19 -2 13 -5z m194 1 c-3 -3 -12 -4
-19 -1 -8 3 -5 6 6 6 11 1 17 -2 13 -5z m-70 -10 c-3 -3 -12 -4 -19 -1 -8 3
-5 6 6 6 11 1 17 -2 13 -5z m3563 -14 c0 -11 -7 -20 -15 -20 -15 0 -21 21 -8
33 12 13 23 7 23 -13z m-3495 0 c3 -5 -1 -10 -10 -10 -9 0 -13 5 -10 10 3 6 8
10 10 10 2 0 7 -4 10 -10z m-428 -6 c-3 -3 -12 -4 -19 -1 -8 3 -5 6 6 6 11 1
17 -2 13 -5z m173 -4 c-20 -13 -33 -13 -25 0 3 6 14 10 23 10 15 0 15 -2 2
-10z m200 0 c-20 -13 -43 -13 -35 0 3 6 16 10 28 10 18 0 19 -2 7 -10z m-253
-6 c-3 -3 -12 -4 -19 -1 -8 3 -5 6 6 6 11 1 17 -2 13 -5z m190 0 c-3 -3 -12
-4 -19 -1 -8 3 -5 6 6 6 11 1 17 -2 13 -5z m-250 -10 c-3 -3 -12 -4 -19 -1 -8
3 -5 6 6 6 11 1 17 -2 13 -5z m186 -1 c-7 -2 -19 -2 -25 0 -7 3 -2 5 12 5 14
0 19 -2 13 -5z m184 1 c-3 -3 -12 -4 -19 -1 -8 3 -5 6 6 6 11 1 17 -2 13 -5z
m1856 -46 c-3 -16 -9 -28 -14 -28 -10 0 -11 25 -2 59 8 33 23 5 16 -31z
m-2103 38 c0 -2 -9 -6 -20 -9 -11 -3 -20 -1 -20 4 0 5 9 9 20 9 11 0 20 -2 20
-4z m193 -3 c-7 -2 -19 -2 -25 0 -7 3 -2 5 12 5 14 0 19 -2 13 -5z m-260 -10
c-7 -2 -19 -2 -25 0 -7 3 -2 5 12 5 14 0 19 -2 13 -5z m184 1 c-3 -3 -12 -4
-19 -1 -8 3 -5 6 6 6 11 1 17 -2 13 -5z m-244 -11 c-7 -2 -19 -2 -25 0 -7 3
-2 5 12 5 14 0 19 -2 13 -5z m3862 -3 c3 -5 1 -10 -4 -10 -6 0 -11 5 -11 10 0
6 2 10 4 10 3 0 8 -4 11 -10z m-3748 -6 c-3 -3 -12 -4 -19 -1 -8 3 -5 6 6 6
11 1 17 -2 13 -5z m2003 -4 c0 -5 -6 -10 -14 -10 -8 0 -21 -3 -30 -6 -9 -3
-16 -1 -16 4 0 10 19 18 48 21 6 0 12 -3 12 -9z m-2113 -6 c-3 -3 -12 -4 -19
-1 -8 3 -5 6 6 6 11 1 17 -2 13 -5z m2019 -9 c-22 -17 -56 -20 -56 -6 0 9 25
17 60 19 11 1 10 -3 -4 -13z m1907 -9 c3 -8 3 -17 0 -20 -7 -7 -33 13 -33 25
0 15 27 10 33 -5z m-4207 -116 c0 -58 5 -132 12 -165 13 -68 31 -311 38 -525
3 -80 7 -163 10 -185 2 -22 7 -90 10 -151 l7 -112 -52 -11 c-29 -6 -70 -11
-93 -11 l-40 0 4 55 c3 30 1 55 -2 55 -4 0 -10 19 -13 42 -4 32 -2 45 9 51 9
5 13 16 9 28 -4 10 -2 19 3 19 5 0 12 -9 15 -20 3 -12 14 -20 25 -20 18 0 20
6 19 55 -2 44 -6 56 -21 61 -16 5 -18 14 -14 74 3 43 1 73 -6 80 -7 7 -7 16 2
30 10 17 10 21 -3 26 -19 8 -20 24 0 24 12 0 14 17 14 94 -1 52 2 99 6 106 4
6 2 17 -5 25 -7 8 -7 16 -1 19 5 3 9 32 9 63 0 32 7 78 15 103 33 99 31 129
-14 212 -23 43 -3 91 36 86 19 -3 20 -11 21 -108z m2384 100 c-20 -13 -53 -13
-45 0 3 6 18 10 33 10 21 0 24 -2 12 -10z m1750 1 c0 -5 -7 -14 -15 -21 -13
-10 -15 -9 -15 9 0 12 6 21 15 21 8 0 15 -4 15 -9z m-1825 -11 c-3 -5 -20 -10
-36 -10 -18 0 -28 4 -24 10 3 6 20 10 36 10 18 0 28 -4 24 -10z m1295 -27 c0
-7 -7 -13 -15 -13 -16 0 -19 9 -9 35 5 13 8 14 15 3 5 -7 9 -19 9 -25z m-1210
7 c0 -5 -15 -10 -32 -9 -28 0 -30 2 -13 9 28 12 45 12 45 0z m-80 -10 c0 -5
-17 -10 -37 -9 -31 0 -34 2 -18 9 28 12 55 12 55 0z m-3032 -95 c0 -38 -1 -39
-8 -10 -4 17 -8 44 -8 60 -1 25 1 27 8 10 5 -11 8 -38 8 -60z m3027 56 c-3 -6
-20 -11 -38 -11 -36 0 -26 16 13 22 30 5 34 3 25 -11z m80 9 c-3 -5 -17 -10
-31 -10 -13 0 -24 5 -24 10 0 6 14 10 31 10 17 0 28 -4 24 -10z m5 -30 c0 -5
-15 -10 -32 -9 -28 0 -30 2 -13 9 28 12 45 12 45 0z m-80 -10 c0 -5 -17 -10
-37 -9 -31 0 -34 2 -18 9 28 12 55 12 55 0z m80 -30 c-20 -13 -50 -13 -50 0 0
6 15 10 33 10 24 0 28 -3 17 -10z m-1723 -6 c-3 -3 -12 -4 -19 -1 -8 3 -5 6 6
6 11 1 17 -2 13 -5z m1637 -4 c-5 -5 -22 -10 -39 -13 -24 -3 -21 -4 13 -6 42
-1 53 -21 11 -21 -10 0 -19 -5 -19 -11 0 -5 8 -9 18 -8 33 3 37 -2 12 -16
l-25 -14 25 -1 c23 -1 24 -2 8 -14 -23 -17 -23 -26 -1 -26 15 0 14 -2 -3 -15
-17 -13 -17 -14 -1 -15 21 0 23 -20 2 -20 -21 0 -19 -18 3 -23 13 -4 11 -5 -5
-6 -28 -1 -31 -21 -3 -21 11 0 20 -4 20 -10 0 -5 -11 -10 -25 -10 -34 0 -32
-18 3 -23 25 -4 25 -4 -5 -6 -45 -2 -42 -21 4 -21 44 0 38 -10 -8 -14 -18 -1
-35 -8 -37 -15 -3 -10 5 -12 32 -9 20 2 36 0 36 -4 0 -4 -15 -8 -34 -8 -33 0
-36 -3 -75 -83 -43 -91 -56 -106 -106 -123 -41 -14 -56 -6 -53 28 1 15 -3 37
-9 50 -6 13 -17 82 -24 154 -9 102 -9 138 0 167 12 35 97 133 134 153 21 12
163 15 151 4z m1356 6 c0 -3 -4 -8 -10 -11 -5 -3 -10 -1 -10 4 0 6 5 11 10 11
6 0 10 -2 10 -4z m377 -38 c-3 -7 -5 -2 -5 12 0 14 2 19 5 13 2 -7 2 -19 0
-25z m-1647 12 c0 -5 -12 -10 -27 -10 -22 0 -25 2 -13 10 20 13 40 13 40 0z
m-1853 -16 c-3 -3 -12 -4 -19 -1 -8 3 -5 6 6 6 11 1 17 -2 13 -5z m70 -20 c-3
-3 -12 -4 -19 -1 -8 3 -5 6 6 6 11 1 17 -2 13 -5z m1778 -4 c-3 -5 -15 -10
-26 -10 -11 0 -17 5 -14 10 3 6 15 10 26 10 11 0 17 -4 14 -10z m1295 -31 c0
-18 -4 -28 -10 -24 -5 3 -10 20 -10 36 0 18 4 28 10 24 6 -3 10 -20 10 -36z
m-3143 25 c-3 -3 -12 -4 -19 -1 -8 3 -5 6 6 6 11 1 17 -2 13 -5z m140 -10 c-3
-3 -12 -4 -19 -1 -8 3 -5 6 6 6 11 1 17 -2 13 -5z m3333 -9 c0 -8 -4 -15 -10
-15 -5 0 -10 7 -10 15 0 8 5 15 10 15 6 0 10 -7 10 -15z m-3397 -2 c-7 -2 -19
-2 -25 0 -7 3 -2 5 12 5 14 0 19 -2 13 -5z m1777 -2 c0 -12 -39 -21 -45 -11
-3 5 5 11 17 13 13 2 24 5 26 6 1 0 2 -3 2 -8z m-1913 -7 c-3 -3 -12 -4 -19
-1 -8 3 -5 6 6 6 11 1 17 -2 13 -5z m196 -11 c-7 -2 -19 -2 -25 0 -7 3 -2 5
12 5 14 0 19 -2 13 -5z m-126 -9 c-3 -3 -12 -4 -19 -1 -8 3 -5 6 6 6 11 1 17
-2 13 -5z m-70 -10 c-3 -3 -12 -4 -19 -1 -8 3 -5 6 6 6 11 1 17 -2 13 -5z
m1913 -4 c0 -5 -12 -10 -26 -10 -14 0 -23 4 -19 10 3 6 15 10 26 10 10 0 19
-4 19 -10z m-1717 -7 c-7 -2 -19 -2 -25 0 -7 3 -2 5 12 5 14 0 19 -2 13 -5z
m-256 -19 c-3 -3 -12 -4 -19 -1 -8 3 -5 6 6 6 11 1 17 -2 13 -5z m572 -18 c15
-18 -1 -34 -44 -41 -39 -8 -40 -7 -22 12 23 26 22 33 -5 33 -16 0 -19 3 -10 8
16 11 69 3 81 -12z m2589 -6 c-2 -30 -12 -38 -23 -20 -6 9 11 50 21 50 2 0 3
-13 2 -30z m-2971 14 c-3 -3 -12 -4 -19 -1 -8 3 -5 6 6 6 11 1 17 -2 13 -5z
m1770 -5 c-14 -8 -22 -8 -30 0 -8 8 -3 11 19 11 25 -1 27 -2 11 -11z m1420
-31 c-3 -8 -6 -5 -6 6 -1 11 2 17 5 13 3 -3 4 -12 1 -19z m-3190 6 c-3 -3 -12
-4 -19 -1 -8 3 -5 6 6 6 11 1 17 -2 13 -5z m1788 -4 c-3 -5 -16 -10 -28 -10
-18 0 -19 2 -7 10 20 13 43 13 35 0z m-1520 -20 c3 -5 -1 -10 -9 -10 -9 0 -16
5 -16 10 0 6 4 10 9 10 6 0 13 -4 16 -10z m-328 -6 c-3 -3 -12 -4 -19 -1 -8 3
-5 6 6 6 11 1 17 -2 13 -5z m-120 -10 c-3 -3 -12 -4 -19 -1 -8 3 -5 6 6 6 11
1 17 -2 13 -5z m1966 -1 c-7 -2 -21 -2 -30 0 -10 3 -4 5 12 5 17 0 24 -2 18
-5z m1583 -40 c-2 -3 -9 -2 -15 2 -8 4 -7 13 1 28 l13 22 3 -23 c2 -13 1 -26
-2 -29z m-736 27 c0 -5 -6 -10 -14 -10 -8 0 -18 5 -21 10 -3 6 3 10 14 10 12
0 21 -4 21 -10z m-2753 -6 c-3 -3 -12 -4 -19 -1 -8 3 -5 6 6 6 11 1 17 -2 13
-5z m60 0 c-3 -3 -12 -4 -19 -1 -8 3 -5 6 6 6 11 1 17 -2 13 -5z m1848 -14 c4
-6 -5 -10 -20 -10 -15 0 -24 4 -20 10 3 6 12 10 20 10 8 0 17 -4 20 -10z
m-1425 -15 c0 -8 -6 -15 -14 -15 -8 0 -16 -7 -20 -15 -3 -9 0 -15 9 -15 8 0
15 -3 15 -7 0 -7 -36 -120 -63 -196 -12 -33 -50 -62 -94 -70 -26 -5 -33 -3
-33 9 0 8 -4 13 -9 9 -5 -3 -12 -1 -16 5 -3 5 -1 10 4 10 6 0 11 5 11 11 0 5
-4 7 -10 4 -6 -3 -10 5 -10 19 0 19 -4 24 -16 19 -12 -4 -14 0 -8 23 8 33 34
65 34 42 0 -19 27 35 35 70 4 22 16 34 46 47 21 10 39 22 39 27 0 4 9 8 21 8
11 0 18 4 14 9 -5 9 14 15 53 20 6 0 12 -6 12 -14z m2985 -26 c0 -8 -6 -13
-14 -11 -8 2 -18 -3 -22 -10 -12 -18 -22 -3 -14 21 7 24 50 24 50 0z m-3398 5
c-3 -3 -12 -4 -19 -1 -8 3 -5 6 6 6 11 1 17 -2 13 -5z m1836 -1 c-7 -2 -21 -2
-30 0 -10 3 -4 5 12 5 17 0 24 -2 18 -5z m7 -33 c0 -5 -9 -10 -20 -10 -11 0
-20 5 -20 10 0 6 9 10 20 10 11 0 20 -4 20 -10z m-82 -37 c-10 -2 -28 -2 -40
0 -13 2 -5 4 17 4 22 1 32 -1 23 -4z m80 0 c-10 -2 -26 -2 -35 0 -10 3 -2 5
17 5 19 0 27 -2 18 -5z m1308 -41 c-15 -15 -15 -15 -4 10 7 15 15 23 17 17 2
-6 -4 -18 -13 -27z m-1377 14 c-12 -10 -59 -15 -59 -6 0 5 14 10 32 10 17 0
29 -2 27 -4z m64 -3 c-7 -2 -19 -2 -25 0 -7 3 -2 5 12 5 14 0 19 -2 13 -5z
m1621 -102 c0 -19 -4 -36 -10 -38 -11 -4 -28 33 -24 52 1 6 2 23 2 39 -2 78
28 28 32 -53z m-3577 83 c-3 -3 -12 -4 -19 -1 -8 3 -5 6 6 6 11 1 17 -2 13 -5z
m1953 -14 c0 -5 -7 -10 -15 -10 -8 0 -15 5 -15 10 0 6 7 10 15 10 8 0 15 -4
15 -10z m-1893 -6 c-3 -3 -12 -4 -19 -1 -8 3 -5 6 6 6 11 1 17 -2 13 -5z m60
0 c-3 -3 -12 -4 -19 -1 -8 3 -5 6 6 6 11 1 17 -2 13 -5z m1761 -1 c-10 -2 -28
-2 -40 0 -13 2 -5 4 17 4 22 1 32 -1 23 -4z m1182 -9 c0 -2 -7 -4 -15 -4 -8 0
-15 4 -15 10 0 5 7 7 15 4 8 -4 15 -8 15 -10z m576 -31 c-11 -11 -19 6 -11 24
8 17 8 17 12 0 3 -10 2 -21 -1 -24z m-3449 21 c-3 -3 -12 -4 -19 -1 -8 3 -5 6
6 6 11 1 17 -2 13 -5z m-130 -10 c-3 -3 -12 -4 -19 -1 -8 3 -5 6 6 6 11 1 17
-2 13 -5z m1821 -1 c-10 -2 -26 -2 -35 0 -10 3 -2 5 17 5 19 0 27 -2 18 -5z
m75 0 c-7 -2 -19 -2 -25 0 -7 3 -2 5 12 5 14 0 19 -2 13 -5z m-1766 -19 c-3
-3 -12 -4 -19 -1 -8 3 -5 6 6 6 11 1 17 -2 13 -5z m1703 -14 c0 -5 -15 -10
-32 -9 -31 1 -32 1 -8 9 35 11 40 11 40 0z m57 4 c-3 -3 -12 -4 -19 -1 -8 3
-5 6 6 6 11 1 17 -2 13 -5z m-1880 -20 c-3 -3 -12 -4 -19 -1 -8 3 -5 6 6 6 11
1 17 -2 13 -5z m66 -1 c-7 -2 -19 -2 -25 0 -7 3 -2 5 12 5 14 0 19 -2 13 -5z
m60 0 c-7 -2 -19 -2 -25 0 -7 3 -2 5 12 5 14 0 19 -2 13 -5z m2907 -13 c0 -5
-5 -10 -11 -10 -7 0 -18 -8 -25 -17 -12 -17 -13 -16 -14 4 0 21 11 31 38 32 6
1 12 -3 12 -9z m-2903 -6 c-3 -3 -12 -4 -19 -1 -8 3 -5 6 6 6 11 1 17 -2 13
-5z m1681 -1 c-10 -2 -26 -2 -35 0 -10 3 -2 5 17 5 19 0 27 -2 18 -5z m69 1
c-3 -3 -12 -4 -19 -1 -8 3 -5 6 6 6 11 1 17 -2 13 -5z m1185 -38 c-3 -5 -9 -1
-13 10 -12 31 -10 39 5 19 8 -11 12 -24 8 -29z m-1685 12 c-3 -8 -6 -5 -6 6
-1 11 2 17 5 13 3 -3 4 -12 1 -19z m2093 3 c0 -6 -4 -13 -10 -16 -5 -3 -10 1
-10 9 0 9 5 16 10 16 6 0 10 -4 10 -9z m-3347 -8 c-7 -2 -19 -2 -25 0 -7 3 -2
5 12 5 14 0 19 -2 13 -5z m1690 0 c-7 -2 -21 -2 -30 0 -10 3 -4 5 12 5 17 0
24 -2 18 -5z m70 0 c-7 -2 -19 -2 -25 0 -7 3 -2 5 12 5 14 0 19 -2 13 -5z
m-303 -33 c0 -27 3 -30 33 -31 l32 -1 -30 -11 c-40 -16 -38 -56 3 -58 l27 -2
-27 -4 -26 -4 4 -81 c4 -83 32 -206 59 -258 17 -34 19 -107 4 -165 -6 -22 -12
-58 -15 -80 -5 -43 -47 -161 -74 -210 -9 -16 -35 -56 -56 -89 -21 -32 -46 -70
-54 -84 -8 -15 -20 -31 -26 -37 -7 -5 -31 -41 -55 -80 -23 -38 -59 -86 -78
-107 -52 -52 -106 -127 -132 -181 -13 -26 -30 -49 -38 -52 -9 -3 -24 -25 -34
-50 -11 -25 -23 -45 -29 -45 -5 0 -7 -4 -4 -9 9 -14 -29 -42 -48 -35 -9 3 -16
10 -16 14 0 5 -6 15 -12 22 -18 18 -64 111 -61 120 2 4 -1 8 -6 8 -5 0 -14 12
-20 28 -14 35 -76 132 -130 203 -22 30 -41 60 -41 67 0 7 -11 34 -24 60 -15
30 -26 74 -31 124 l-7 77 52 26 c35 18 62 25 80 21 24 -4 28 -1 38 30 10 35 7
69 -10 91 -7 9 -2 11 19 7 15 -3 34 -12 41 -22 10 -14 16 -14 32 -4 11 6 29
12 41 12 12 0 39 19 63 43 22 23 62 55 89 70 26 15 47 32 47 36 0 5 10 11 23
15 12 3 42 24 67 46 26 24 37 38 25 34 -11 -3 -7 3 10 14 42 27 74 67 106 131
15 30 38 63 51 75 33 28 88 178 103 276 9 62 15 80 26 80 5 0 9 -13 9 -30z
m53 23 c-7 -2 -19 -2 -25 0 -7 3 -2 5 12 5 14 0 19 -2 13 -5z m-1636 -19 c-3
-3 -12 -4 -19 -1 -8 3 -5 6 6 6 11 1 17 -2 13 -5z m66 -1 c-7 -2 -19 -2 -25 0
-7 3 -2 5 12 5 14 0 19 -2 13 -5z m70 0 c-7 -2 -19 -2 -25 0 -7 3 -2 5 12 5
14 0 19 -2 13 -5z m1687 -3 c0 -5 -12 -10 -27 -9 -25 0 -26 1 -8 9 27 12 35
12 35 0z m1690 6 c0 -11 -19 -15 -25 -6 -3 5 1 10 9 10 9 0 16 -2 16 -4z m260
-5 c0 -12 -28 -22 -34 -12 -3 5 -3 11 1 15 9 9 33 7 33 -3z m-2137 -8 c-7 -2
-19 -2 -25 0 -7 3 -2 5 12 5 14 0 19 -2 13 -5z m1400 -8 c4 -8 2 -17 -3 -20
-6 -4 -10 3 -10 14 0 25 6 27 13 6z m-1215 -22 c-10 -2 -26 -2 -35 0 -10 3 -2
5 17 5 19 0 27 -2 18 -5z m65 0 c-7 -2 -19 -2 -25 0 -7 3 -2 5 12 5 14 0 19
-2 13 -5z m-1756 -9 c-3 -3 -12 -4 -19 -1 -8 3 -5 6 6 6 11 1 17 -2 13 -5z
m3413 -25 c0 -10 6 -18 13 -16 7 1 13 -11 15 -30 4 -37 -7 -42 -30 -15 -17 19
-31 76 -21 86 10 10 23 -4 23 -25z m-5202 -12 c-6 -12 -12 -23 -13 -25 -2 -2
-15 7 -30 20 l-27 23 29 6 c43 8 55 1 41 -24z m4726 11 c-9 -32 -31 -61 -37
-51 -5 8 -10 51 -8 66 1 4 13 7 27 7 22 0 24 -3 18 -22z m-1246 5 c-10 -2 -26
-2 -35 0 -10 3 -2 5 17 5 19 0 27 -2 18 -5z m65 0 c-7 -2 -19 -2 -25 0 -7 3
-2 5 12 5 14 0 19 -2 13 -5z m-1820 -10 c-7 -2 -19 -2 -25 0 -7 3 -2 5 12 5
14 0 19 -2 13 -5z m70 0 c-7 -2 -19 -2 -25 0 -7 3 -2 5 12 5 14 0 19 -2 13 -5z
m1494 1 c-3 -3 -12 -4 -19 -1 -8 3 -5 6 6 6 11 1 17 -2 13 -5z m2173 -4 c0 -5
-6 -10 -14 -10 -8 0 -18 5 -21 10 -3 6 3 10 14 10 12 0 21 -4 21 -10z m-1920
-20 c0 -5 -5 -10 -11 -10 -5 0 -7 5 -4 10 3 6 8 10 11 10 2 0 4 -4 4 -10z
m-4000 -20 c0 -11 -4 -20 -10 -20 -5 0 -10 9 -10 20 0 11 5 20 10 20 6 0 10
-9 10 -20z m3938 13 c-10 -2 -26 -2 -35 0 -10 3 -2 5 17 5 19 0 27 -2 18 -5z
m382 4 c0 -2 -10 -12 -22 -23 l-23 -19 19 23 c18 21 26 27 26 19z m-563 -33
c-3 -3 -12 -4 -19 -1 -8 3 -5 6 6 6 11 1 17 -2 13 -5z m181 -1 c-10 -2 -26 -2
-35 0 -10 3 -2 5 17 5 19 0 27 -2 18 -5z m1208 -26 c19 7 18 -20 -1 -58 -21
-39 -36 -28 -34 24 2 47 12 71 17 45 2 -10 9 -15 18 -11z m-2949 7 c-3 -3 -12
-4 -19 -1 -8 3 -5 6 6 6 11 1 17 -2 13 -5z m60 0 c-3 -3 -12 -4 -19 -1 -8 3
-5 6 6 6 11 1 17 -2 13 -5z m3208 -4 c-3 -5 -10 -10 -16 -10 -5 0 -9 5 -9 10
0 6 7 10 16 10 8 0 12 -4 9 -10z m-1708 -6 c-3 -3 -12 -4 -19 -1 -8 3 -5 6 6
6 11 1 17 -2 13 -5z m181 -1 c-10 -2 -26 -2 -35 0 -10 3 -2 5 17 5 19 0 27 -2
18 -5z m-1811 -19 c-3 -3 -12 -4 -19 -1 -8 3 -5 6 6 6 11 1 17 -2 13 -5z m66
-1 c-7 -2 -19 -2 -25 0 -7 3 -2 5 12 5 14 0 19 -2 13 -5z m70 0 c-7 -2 -19 -2
-25 0 -7 3 -2 5 12 5 14 0 19 -2 13 -5z m60 0 c-7 -2 -19 -2 -25 0 -7 3 -2 5
12 5 14 0 19 -2 13 -5z m1627 -13 c0 -5 -9 -10 -19 -10 -11 0 -23 5 -26 10 -4
6 5 10 19 10 14 0 26 -4 26 -10z m60 6 c0 -3 -4 -8 -10 -11 -5 -3 -10 -1 -10
4 0 6 5 11 10 11 6 0 10 -2 10 -4z m-1943 -42 c-3 -3 -12 -4 -19 -1 -8 3 -5 6
6 6 11 1 17 -2 13 -5z m130 0 c-3 -3 -12 -4 -19 -1 -8 3 -5 6 6 6 11 1 17 -2
13 -5z m60 0 c-3 -3 -12 -4 -19 -1 -8 3 -5 6 6 6 11 1 17 -2 13 -5z m76 -1
c-7 -2 -19 -2 -25 0 -7 3 -2 5 12 5 14 0 19 -2 13 -5z m1424 1 c-3 -3 -12 -4
-19 -1 -8 3 -5 6 6 6 11 1 17 -2 13 -5z m191 -1 c-10 -2 -28 -2 -40 0 -13 2
-5 4 17 4 22 1 32 -1 23 -4z m59 1 c-3 -3 -12 -4 -19 -1 -8 3 -5 6 6 6 11 1
17 -2 13 -5z m1557 -82 c-6 -35 -7 -35 -14 -12 -3 14 -1 38 4 54 14 37 21 9
10 -42z m-3361 51 c-7 -2 -19 -2 -25 0 -7 3 -2 5 12 5 14 0 19 -2 13 -5z m64
1 c-3 -3 -12 -4 -19 -1 -8 3 -5 6 6 6 11 1 17 -2 13 -5z m66 -1 c-7 -2 -19 -2
-25 0 -7 3 -2 5 12 5 14 0 19 -2 13 -5z m1615 0 c-10 -2 -28 -2 -40 0 -13 2
-5 4 17 4 22 1 32 -1 23 -4z m736 -30 c-10 -39 -28 -48 -32 -16 -3 23 10 42
31 43 4 0 4 -12 1 -27z m-4717 11 c-3 -3 -12 -4 -19 -1 -8 3 -5 6 6 6 11 1 17
-2 13 -5z m76 -1 c-7 -2 -19 -2 -25 0 -7 3 -2 5 12 5 14 0 19 -2 13 -5z m1914
1 c-3 -3 -12 -4 -19 -1 -8 3 -5 6 6 6 11 1 17 -2 13 -5z m120 0 c-3 -3 -12 -4
-19 -1 -8 3 -5 6 6 6 11 1 17 -2 13 -5z m1871 -11 c-10 -2 -26 -2 -35 0 -10 3
-2 5 17 5 19 0 27 -2 18 -5z m1127 -16 c-10 -8 -15 -19 -12 -24 4 -6 0 -13 -8
-17 -9 -3 -15 0 -15 8 0 29 13 46 33 46 20 0 20 -1 2 -13z m-2938 -3 c-3 -3
-12 -4 -19 -1 -8 3 -5 6 6 6 11 1 17 -2 13 -5z m70 0 c-3 -3 -12 -4 -19 -1 -8
3 -5 6 6 6 11 1 17 -2 13 -5z m60 0 c-3 -3 -12 -4 -19 -1 -8 3 -5 6 6 6 11 1
17 -2 13 -5z m2139 -10 c-3 -9 -6 -18 -6 -20 0 -2 -4 -4 -9 -4 -5 0 -7 9 -4
20 3 11 10 20 15 20 6 0 7 -7 4 -16z m-2443 -11 c-7 -2 -19 -2 -25 0 -7 3 -2
5 12 5 14 0 19 -2 13 -5z m1995 0 c-10 -2 -28 -2 -40 0 -13 2 -5 4 17 4 22 1
32 -1 23 -4z m-1751 -9 c-3 -3 -12 -4 -19 -1 -8 3 -5 6 6 6 11 1 17 -2 13 -5z
m130 0 c-3 -3 -12 -4 -19 -1 -8 3 -5 6 6 6 11 1 17 -2 13 -5z m60 0 c-3 -3
-12 -4 -19 -1 -8 3 -5 6 6 6 11 1 17 -2 13 -5z m-320 -20 c-3 -3 -12 -4 -19
-1 -8 3 -5 6 6 6 11 1 17 -2 13 -5z m1881 -1 c-10 -2 -28 -2 -40 0 -13 2 -5 4
17 4 22 1 32 -1 23 -4z m-1621 -9 c-3 -3 -12 -4 -19 -1 -8 3 -5 6 6 6 11 1 17
-2 13 -5z m-430 -10 c-3 -3 -12 -4 -19 -1 -8 3 -5 6 6 6 11 1 17 -2 13 -5z
m50 0 c-3 -3 -12 -4 -19 -1 -8 3 -5 6 6 6 11 1 17 -2 13 -5z m3142 -16 c-3
-31 21 -78 40 -79 31 -1 68 -61 75 -121 3 -32 2 -58 -3 -58 -4 0 -11 -16 -14
-36 -3 -20 -12 -43 -19 -51 -7 -9 -17 -30 -23 -47 -6 -18 -18 -32 -30 -35 -11
-2 -25 -11 -32 -20 -10 -13 -12 -2 -13 62 0 43 5 87 11 99 15 28 2 111 -22
137 -21 23 -25 41 -8 41 8 0 8 5 -1 15 -9 10 -9 15 -1 15 6 0 11 9 11 20 0 11
-7 20 -15 20 -10 0 -15 10 -15 30 0 27 3 30 31 30 26 0 30 -4 28 -22z m-2892
6 c-3 -3 -12 -4 -19 -1 -8 3 -5 6 6 6 11 1 17 -2 13 -5z m1758 -4 c-7 -11 -55
-9 -55 2 0 4 14 8 31 8 17 0 28 -4 24 -10z m758 -10 c-6 -22 -43 -48 -43 -30
0 5 4 10 9 10 5 0 11 9 14 20 3 11 10 20 15 20 6 0 8 -9 5 -20z m-323 -14 c0
-8 -4 -18 -10 -21 -5 -3 -10 3 -10 14 0 12 5 21 10 21 6 0 10 -6 10 -14z
m-2193 -2 c-3 -3 -12 -4 -19 -1 -8 3 -5 6 6 6 11 1 17 -2 13 -5z m70 0 c-3 -3
-12 -4 -19 -1 -8 3 -5 6 6 6 11 1 17 -2 13 -5z m66 -1 c-7 -2 -19 -2 -25 0 -7
3 -2 5 12 5 14 0 19 -2 13 -5z m-436 -9 c-3 -3 -12 -4 -19 -1 -8 3 -5 6 6 6
11 1 17 -2 13 -5z m60 0 c-3 -3 -12 -4 -19 -1 -8 3 -5 6 6 6 11 1 17 -2 13 -5z
m1991 -1 c-10 -2 -28 -2 -40 0 -13 2 -5 4 17 4 22 1 32 -1 23 -4z m317 -12
c-3 -6 -11 -11 -17 -11 -6 0 -6 6 2 15 14 17 26 13 15 -4z m-2192 2 c-7 -2
-19 -2 -25 0 -7 3 -2 5 12 5 14 0 19 -2 13 -5z m-276 -9 c-3 -3 -12 -4 -19 -1
-8 3 -5 6 6 6 11 1 17 -2 13 -5z m50 0 c-3 -3 -12 -4 -19 -1 -8 3 -5 6 6 6 11
1 17 -2 13 -5z m426 -1 c-7 -2 -19 -2 -25 0 -7 3 -2 5 12 5 14 0 19 -2 13 -5z
m54 1 c-3 -3 -12 -4 -19 -1 -8 3 -5 6 6 6 11 1 17 -2 13 -5z m-370 -10 c-3 -3
-12 -4 -19 -1 -8 3 -5 6 6 6 11 1 17 -2 13 -5z m1996 -1 c-7 -2 -19 -2 -25 0
-7 3 -2 5 12 5 14 0 19 -2 13 -5z m1354 -37 c-4 -9 -10 -16 -16 -16 -10 0 -21
47 -13 55 11 10 35 -23 29 -39z m703 34 c0 -5 -4 -10 -10 -10 -5 0 -10 5 -10
10 0 6 5 10 10 10 6 0 10 -4 10 -10z m-3873 -6 c-3 -3 -12 -4 -19 -1 -8 3 -5
6 6 6 11 1 17 -2 13 -5z m66 -1 c-7 -2 -19 -2 -25 0 -7 3 -2 5 12 5 14 0 19
-2 13 -5z m-195 -20 c-10 -2 -26 -2 -35 0 -10 3 -2 5 17 5 19 0 27 -2 18 -5z
m75 0 c-7 -2 -21 -2 -30 0 -10 3 -4 5 12 5 17 0 24 -2 18 -5z m160 -10 c-23
-2 -64 -2 -90 0 -26 2 -7 3 42 3 50 0 71 -1 48 -3z m3337 -23 c0 -5 -4 -10
-10 -10 -5 0 -10 5 -10 10 0 6 5 10 10 10 6 0 10 -4 10 -10z m-70 -20 c0 -5
-4 -10 -10 -10 -5 0 -10 5 -10 10 0 6 5 10 10 10 6 0 10 -4 10 -10z m-1130
-10 c0 -5 -7 -7 -15 -4 -8 4 -15 8 -15 10 0 2 7 4 15 4 8 0 15 -4 15 -10z
m1206 -107 c-3 -8 -10 -12 -15 -9 -9 6 -5 61 6 79 10 14 17 -48 9 -70z m-52
35 c9 -33 8 -36 -14 -58 -24 -24 -60 -27 -60 -5 0 8 6 15 13 15 9 0 9 2 -1 8
-17 11 -6 37 21 50 31 15 34 15 41 -10z m-254 -62 c0 -8 -7 -19 -15 -26 -12
-10 -15 -10 -15 0 0 22 -13 2 -14 -21 0 -12 -7 -24 -13 -27 -22 -7 -14 23 15
60 26 35 42 40 42 14z m230 -47 c0 -11 -27 -12 -34 -1 -2 4 4 9 15 9 10 1 19
-2 19 -8z m498 -31 c-2 -13 -7 -23 -13 -23 -5 0 -11 10 -13 23 -2 15 2 22 13
22 11 0 15 -7 13 -22z m-894 -102 c-6 -16 -24 -23 -24 -8 0 10 22 33 27 28 2
-2 1 -11 -3 -20z m131 -47 c-4 -17 -9 -40 -11 -52 -32 -174 -35 -182 -54 -148
-21 41 3 172 39 212 24 26 33 22 26 -12z m182 -11 c-3 -8 -6 -5 -6 6 -1 11 2
17 5 13 3 -3 4 -12 1 -19z m-340 -23 c2 -19 -2 -35 -7 -35 -6 0 -10 16 -10 35
0 45 14 45 17 0z m85 23 c-5 -7 -12 -22 -15 -33 -4 -16 -5 -15 -6 6 -1 27 6
39 22 39 6 0 5 -5 -1 -12z m191 -95 c-7 -2 -21 -2 -30 0 -10 3 -4 5 12 5 17 0
24 -2 18 -5z m336 -69 c-11 -25 -13 -26 -16 -8 -2 11 2 34 8 50 11 25 13 26
16 8 2 -11 -2 -34 -8 -50z m-539 41 c0 -8 -4 -15 -10 -15 -5 0 -10 7 -10 15 0
8 5 15 10 15 6 0 10 -7 10 -15z m127 -51 c-3 -3 -12 -4 -19 -1 -8 3 -5 6 6 6
11 1 17 -2 13 -5z m110 -126 c-3 -8 -6 -5 -6 6 -1 11 2 17 5 13 3 -3 4 -12 1
-19z m673 -7 c0 -6 -4 -13 -10 -16 -5 -3 -10 1 -10 9 0 9 5 16 10 16 6 0 10
-4 10 -9z m-205 -51 c3 -5 1 -10 -4 -10 -6 0 -11 5 -11 10 0 6 2 10 4 10 3 0
8 -4 11 -10z m-325 -18 c0 -5 -6 -16 -13 -27 -10 -13 -16 -15 -21 -6 -4 6 -2
18 4 26 13 16 30 20 30 7z m-5575 -33 c4 -6 -2 -13 -14 -16 -24 -6 -28 -23 -6
-23 8 0 15 -5 15 -11 0 -6 -9 -8 -22 -4 -40 12 -45 25 -19 46 26 22 37 24 46
8z m6108 -29 c-3 -11 -9 -20 -14 -20 -10 0 -12 33 -3 43 12 12 22 -3 17 -23z
m-45 2 c2 -7 -3 -12 -12 -12 -9 0 -16 7 -16 16 0 17 22 14 28 -4z m-6011 -48
c-3 -3 -12 -4 -19 -1 -8 3 -5 6 6 6 11 1 17 -2 13 -5z m5965 -72 c-8 -76 -22
-71 -33 11 -8 62 -3 74 21 52 14 -12 16 -26 12 -63z m71 18 c-13 -29 -15 -91
-3 -104 8 -10 9 -40 5 -98 -4 -46 -9 -112 -12 -148 -8 -116 -10 -145 -13 -150
-1 -3 -3 -16 -6 -30 -9 -57 -15 -69 -37 -76 -12 -5 -25 -7 -29 -6 -4 1 -10
-10 -14 -26 -10 -48 -13 -48 -11 -2 2 43 3 45 32 45 17 1 30 6 29 13 -1 7 -2
30 -2 52 -2 30 -6 40 -18 40 -12 0 -15 6 -11 21 3 13 -1 26 -12 35 -16 15 -15
18 16 49 35 35 44 75 17 75 -11 0 -14 5 -9 18 6 17 25 108 25 123 0 5 -8 9
-17 9 -10 0 -14 4 -8 8 6 4 10 23 11 42 0 19 3 51 7 70 3 19 6 40 6 45 1 6 15
10 31 10 23 0 29 -3 23 -15z m-199 -117 c-15 -65 -43 -138 -55 -142 -8 -2 -10
2 -4 15 4 11 10 41 12 69 4 46 24 85 45 85 4 0 5 -12 2 -27z m-274 -2 c0 -12
-20 -25 -27 -18 -7 7 6 27 18 27 5 0 9 -4 9 -9z m-4892 -84 c3 -56 1 -67 -12
-67 -12 0 -16 10 -16 43 0 24 -5 48 -11 54 -16 16 -3 45 18 41 14 -2 18 -17
21 -71z m4796 18 c-4 -8 -11 -15 -16 -15 -6 0 -5 6 2 15 7 8 14 15 16 15 2 0
1 -7 -2 -15z m76 -49 c0 -2 -7 -6 -15 -10 -8 -3 -15 -1 -15 4 0 6 7 10 15 10
8 0 15 -2 15 -4z m16 -50 c1 -14 -3 -27 -11 -29 -11 -5 -13 15 -6 62 2 13 15
-12 17 -33z m-4946 -11 c0 -8 -7 -15 -15 -15 -8 0 -15 7 -15 15 0 8 7 15 15
15 8 0 15 -7 15 -15z m122 -10 c-7 -37 -22 -41 -22 -6 0 20 5 31 14 31 9 0 12
-8 8 -25z m-67 5 c3 -5 -3 -10 -15 -10 -12 0 -18 5 -15 10 3 6 10 10 15 10 5
0 12 -4 15 -10z m2513 -38 c5 -35 -16 -62 -48 -62 -53 0 -67 74 -18 97 28 13
62 -4 66 -35z m2769 -6 c-4 -9 -13 -16 -22 -16 -18 0 -19 4 -3 30 14 22 34 10
25 -14z m-5273 3 c-7 -12 -94 -12 -94 0 0 10 65 19 87 13 7 -2 10 -8 7 -13z
m4904 -1 c-3 -7 -11 -13 -18 -13 -7 0 -15 6 -17 13 -3 7 4 12 17 12 13 0 20
-5 18 -12z m-4960 -38 c-7 -11 -16 -20 -20 -20 -5 0 -8 9 -8 20 0 13 7 20 20
20 18 0 19 -2 8 -20z m54 8 c-9 -9 -15 -9 -24 0 -9 9 -7 12 12 12 19 0 21 -3
12 -12z m5138 -8 c0 -21 -15 -27 -25 -10 -7 12 2 30 16 30 5 0 9 -9 9 -20z
m-235 0 c3 -5 -1 -10 -9 -10 -9 0 -16 5 -16 10 0 6 4 10 9 10 6 0 13 -4 16
-10z m160 -30 c-3 -5 -11 -10 -16 -10 -6 0 -7 5 -4 10 3 6 11 10 16 10 6 0 7
-4 4 -10z m-58 -6 c-3 -3 -12 -4 -19 -1 -8 3 -5 6 6 6 11 1 17 -2 13 -5z m-79
-34 c8 -16 10 -35 6 -41 -6 -11 -34 40 -34 62 0 19 16 8 28 -21z m-4638 -39
c0 -21 -45 -55 -60 -46 -11 7 -13 48 -3 58 3 4 19 7 35 7 21 0 28 -5 28 -19z
m4730 5 c0 -3 -4 -8 -10 -11 -5 -3 -10 -1 -10 4 0 6 5 11 10 11 6 0 10 -2 10
-4z m56 -32 c-3 -9 -6 -21 -6 -27 0 -7 -7 -3 -15 7 -16 21 -11 36 12 36 10 0
13 -6 9 -16z m-186 -24 c0 -5 -5 -10 -11 -10 -5 0 -7 5 -4 10 3 6 8 10 11 10
2 0 4 -4 4 -10z m-4521 -72 c-21 -65 -20 -64 -30 -40 -6 17 -4 30 9 47 24 34
33 31 21 -7z m-339 12 c0 -12 -28 -25 -36 -17 -9 9 6 27 22 27 8 0 14 -5 14
-10z m160 -8 c0 -10 7 -27 15 -38 8 -10 15 -24 15 -29 0 -14 -57 -38 -70 -30
-18 11 -11 23 10 18 23 -6 26 9 7 29 -21 20 -26 45 -14 57 17 17 37 13 37 -7z
m257 -8 c-3 -3 -12 -4 -19 -1 -8 3 -5 6 6 6 11 1 17 -2 13 -5z m4727 -30 c3
-8 2 -12 -4 -9 -6 3 -10 10 -10 16 0 14 7 11 14 -7z m-4894 -8 c0 -3 -4 -8
-10 -11 -5 -3 -10 -1 -10 4 0 6 5 11 10 11 6 0 10 -2 10 -4z m-376 -65 c4 -5
-3 -7 -14 -4 -23 6 -26 13 -6 13 8 0 17 -4 20 -9z m305 -48 c2 -2 -7 -3 -20
-3 -31 0 -53 15 -45 29 6 9 29 0 65 -26z m121 17 c0 -5 -5 -10 -11 -10 -5 0
-7 5 -4 10 3 6 8 10 11 10 2 0 4 -4 4 -10z m-153 -37 c-14 -4 -16 -8 -6 -19
16 -20 5 -28 -20 -15 -28 15 -16 41 18 40 17 -1 20 -3 8 -6z m5448 -43 c-3 -5
-2 -10 4 -10 19 0 61 -47 61 -68 0 -31 -19 -74 -29 -67 -5 3 -12 1 -16 -5 -10
-15 -28 -12 -22 4 3 8 1 16 -4 18 -6 2 -11 34 -13 71 -1 51 1 67 12 67 7 0 10
-4 7 -10z m-5405 -13 c0 -12 -17 -14 -50 -8 -9 2 25 21 38 21 6 0 12 -6 12
-13z m5016 -3 c-4 -10 3 -25 19 -40 22 -21 26 -21 35 -6 8 14 9 14 10 2 0 -13
2 -13 9 -1 7 11 11 4 17 -24 5 -30 3 -41 -10 -50 -21 -16 -20 -22 5 -28 12 -3
19 -12 17 -19 -7 -21 -31 -15 -44 11 l-12 23 -7 -21 c-4 -13 -1 -29 7 -39 12
-16 11 -16 -7 -1 -11 9 -30 20 -43 24 -32 9 -66 79 -59 123 7 42 23 62 49 62
14 0 18 -5 14 -16z m198 -38 c8 -32 -1 -54 -25 -61 -25 -8 -39 2 -39 28 0 26
10 42 30 50 25 9 28 8 34 -17z m125 -28 c1 14 31 17 31 3 0 -5 -7 -12 -16 -15
-8 -3 -13 -10 -10 -15 3 -5 -1 -21 -8 -36 l-15 -28 -6 37 c-4 20 -4 48 0 63
l8 28 7 -25 c5 -14 8 -19 9 -12z m-5278 -18 c6 0 7 -4 4 -10 -3 -5 -18 -10
-33 -10 -21 0 -24 2 -12 10 13 8 13 10 1 10 -11 0 -9 4 5 14 16 13 19 13 22 0
2 -8 8 -14 13 -14z m2189 -60 c24 -24 25 -47 3 -72 -18 -20 -63 -24 -81 -6
-20 20 -14 65 10 82 30 21 44 20 68 -4z m3162 -25 c0 -5 -5 -11 -11 -13 -6 -2
-11 4 -11 13 0 9 5 15 11 13 6 -2 11 -8 11 -13z m-512 -79 c8 -7 23 -16 33
-19 31 -11 18 -27 -23 -27 -30 0 -42 5 -47 18 -3 9 -13 26 -22 36 -15 18 -15
19 14 12 17 -4 37 -13 45 -20z m-157 -335 c22 -9 26 -19 36 -83 6 -40 20 -113
31 -163 32 -143 43 -232 44 -352 1 -76 5 -114 13 -117 19 -8 34 -108 35 -229
0 -136 -12 -337 -21 -337 -3 0 -7 -51 -9 -113 -1 -61 -10 -157 -18 -212 -9
-55 -17 -113 -19 -130 -9 -89 -28 -211 -45 -295 -10 -52 -26 -133 -34 -180
-20 -107 -37 -172 -47 -186 -5 -6 -7 -13 -4 -16 3 -3 -2 -38 -11 -79 -20 -91
-31 -157 -39 -229 -3 -30 -10 -77 -15 -103 -6 -26 -10 -65 -10 -85 0 -21 -7
-47 -15 -59 -10 -14 -13 -32 -9 -47 3 -13 1 -27 -5 -30 -21 -14 -11 -28 15
-22 14 4 35 4 47 0 20 -6 20 -7 2 -20 -17 -13 -17 -14 -1 -14 33 0 66 -46 66
-93 0 -57 -50 -158 -95 -193 -73 -55 -145 -35 -145 41 0 33 -2 35 -35 35 -23
0 -38 6 -41 15 -4 10 -13 13 -25 10 -14 -5 -19 -1 -19 14 0 25 37 24 44 -1 3
-15 12 -18 42 -15 32 3 39 9 45 32 5 15 16 37 26 49 18 21 18 21 -4 3 -26 -22
-37 -9 -23 27 8 21 7 26 -6 26 -9 0 -14 -6 -11 -12 12 -35 -51 -80 -79 -57
-16 13 -19 43 -4 34 6 -3 10 4 10 17 0 15 3 19 8 10 6 -9 14 -7 30 9 24 22 21
39 -6 39 -14 0 -15 -2 -2 -10 12 -7 10 -11 -10 -18 -52 -19 -70 -23 -70 -14 0
5 -11 15 -25 22 -14 8 -23 20 -21 27 3 7 1 13 -4 13 -6 0 -10 5 -10 10 0 6 -9
19 -20 30 -11 11 -20 28 -20 38 0 10 -5 23 -11 29 -7 7 -5 15 7 27 14 15 15
21 4 42 -8 13 -17 24 -22 24 -4 0 -8 34 -8 75 0 55 4 77 14 81 21 8 27 58 12
108 -9 31 -10 48 -3 55 6 6 11 18 12 28 0 10 4 23 7 28 3 6 2 33 -3 60 -12 74
-11 79 16 119 22 33 24 40 12 64 -16 33 -16 50 1 61 10 6 17 43 22 114 0 4 6
6 13 5 7 -2 12 7 12 22 0 14 3 30 6 35 7 13 4 68 -4 82 -11 18 -4 67 12 79 10
8 11 13 3 18 -7 4 -12 35 -12 76 0 39 -5 72 -11 76 -7 4 -2 11 12 18 39 20 46
42 21 69 -26 27 -27 40 -7 57 21 17 19 30 -5 30 -11 0 -20 5 -20 10 0 6 12 10
26 10 20 0 24 3 17 13 -5 6 -8 33 -5 60 3 35 8 47 21 47 9 0 12 3 6 8 -15 11
-17 30 -5 52 9 17 7 20 -15 26 -26 6 -35 24 -12 24 7 0 18 10 26 22 11 18 11
22 -3 30 -10 6 -16 23 -16 48 0 24 -5 40 -12 40 -6 0 -5 7 5 18 9 10 18 36 20
59 2 22 7 45 11 52 4 6 8 32 8 58 0 30 6 52 18 65 14 16 16 26 9 52 -5 17 -7
53 -5 79 2 26 0 50 -4 52 -5 3 -3 20 2 39 9 30 8 38 -13 68 -13 18 -25 43 -26
56 -2 24 -60 110 -69 102 -3 -3 -20 19 -38 48 -18 29 -35 49 -39 46 -4 -4 -7
3 -7 15 0 12 -8 33 -17 48 -10 14 -18 32 -19 38 -1 7 45 36 102 64 58 29 137
73 176 99 131 86 198 107 261 83z m742 -141 c10 -16 -15 -40 -41 -40 -19 0
-24 5 -24 25 0 21 5 25 29 25 17 0 33 -5 36 -10z m-4585 -38 c25 -12 61 -25
80 -28 19 -4 40 -10 45 -14 6 -4 19 -10 30 -12 19 -3 19 -4 -3 -26 -14 -14
-23 -37 -25 -61 -1 -21 -9 -46 -16 -55 -7 -8 -15 -33 -18 -53 -2 -21 -13 -55
-23 -75 l-19 -37 23 -28 c13 -16 35 -35 49 -42 22 -12 26 -21 29 -72 3 -61 0
-67 -20 -47 -21 21 -25 0 -5 -29 33 -46 52 -148 33 -182 -9 -17 -8 -25 5 -37
10 -11 16 -33 15 -63 0 -25 4 -82 10 -126 11 -94 12 -236 1 -250 -16 -20 -19
-70 -6 -95 14 -29 19 -176 6 -184 -9 -6 -26 -94 -22 -111 2 -5 3 -40 3 -77 -1
-37 3 -70 9 -73 14 -9 11 -25 -6 -25 -10 0 -15 -10 -15 -31 0 -16 4 -28 8 -25
5 3 9 -17 10 -44 0 -27 8 -70 16 -95 23 -66 21 -75 -29 -124 -25 -25 -45 -51
-45 -58 0 -7 -4 -13 -9 -13 -5 0 -13 -10 -17 -22 -7 -21 -8 -20 -15 11 -5 24
-3 38 7 48 17 17 8 37 -13 29 -12 -5 -13 0 -8 24 5 21 3 30 -6 30 -8 0 -10 15
-6 53 3 35 1 58 -8 71 -9 12 -13 43 -10 96 2 57 -1 80 -10 84 -15 5 -18 96 -3
96 4 0 8 7 8 15 0 8 -4 15 -10 15 -5 0 -14 10 -21 21 -9 17 -8 23 2 30 9 6 10
12 4 17 -23 16 -46 182 -25 182 5 0 10 5 10 10 0 6 -9 10 -20 10 -11 0 -20 5
-20 10 0 6 -7 22 -16 36 -12 17 -17 49 -18 107 -1 71 -4 85 -23 105 -25 24
-29 37 -12 47 6 5 7 27 3 63 -4 32 -7 70 -7 87 0 16 -5 35 -13 42 -10 10 -10
20 -2 46 16 45 16 155 2 194 -9 24 -10 42 -2 70 5 20 7 58 3 83 -4 25 -8 56
-10 70 -2 14 -6 34 -10 45 -3 12 3 37 15 60 11 21 20 45 20 52 0 7 10 21 22
33 20 18 20 22 2 19 -25 -3 -31 66 -9 107 8 16 15 39 15 51 0 13 10 27 22 34
l22 12 -23 8 c-12 5 -19 13 -16 19 4 6 13 7 23 2 9 -5 37 -18 62 -30z m3157
-104 c-3 -8 -6 -5 -6 6 -1 11 2 17 5 13 3 -3 4 -12 1 -19z m-1776 -17 l23 -18
-20 -34 c-35 -60 -104 -49 -104 17 0 52 55 72 101 35z m2705 -337 l29 -24 -30
6 c-16 4 -35 13 -41 20 -6 8 -21 14 -33 14 -11 0 -21 4 -21 8 0 16 68 -1 96
-24z m94 -23 c0 -15 -17 -22 -36 -14 -16 6 -16 7 2 14 27 11 34 10 34 0z
m-2798 -388 c37 -33 10 -93 -43 -93 -31 0 -49 23 -49 64 0 43 57 61 92 29z
m-1916 -304 c19 -17 20 -24 11 -49 -12 -33 -43 -42 -93 -28 -41 11 -67 48 -34
48 11 0 20 5 20 12 0 9 3 9 12 0 17 -17 28 -15 28 6 0 37 23 42 56 11z m1964
-399 c24 -24 25 -38 4 -68 -17 -24 -62 -30 -82 -10 -18 18 -15 75 6 87 26 16
50 13 72 -9z m-1314 -666 c-4 -9 -9 -15 -11 -12 -3 3 -3 13 1 22 4 9 9 15 11
12 3 -3 3 -13 -1 -22z m1354 -34 c39 -39 14 -100 -41 -100 -49 0 -69 75 -27
104 30 21 44 20 68 -4z"/>
<path d="M4058 8803 c7 -3 16 -2 19 1 4 3 -2 6 -13 5 -11 0 -14 -3 -6 -6z"/>
<path d="M3110 7940 c-47 -4 -98 -11 -115 -16 -30 -8 -39 -9 -87 -12 -33 -2
-59 -27 -51 -48 14 -36 50 -64 84 -63 64 0 89 -11 72 -33 -19 -25 -24 -65 -8
-78 8 -7 13 -21 12 -33 -2 -17 6 -22 42 -30 37 -7 48 -6 71 12 15 11 43 24 61
29 33 10 33 10 6 11 -24 1 -27 4 -22 21 5 16 2 20 -17 20 -20 1 -18 3 10 15
31 13 37 13 75 -6 l41 -21 -30 -13 -29 -13 43 -1 c25 -1 49 5 58 13 7 8 19 16
25 18 8 3 5 13 -10 30 -26 29 -100 55 -186 64 -51 5 -57 8 -42 19 9 6 45 15
79 19 34 3 67 11 72 16 13 13 63 13 71 0 3 -5 17 -10 31 -10 20 0 25 4 22 22
-2 15 -21 31 -58 50 -58 30 -69 31 -220 18z m-10 -261 c0 -5 -9 -9 -20 -9 -22
0 -23 1 -14 24 5 13 9 14 20 5 8 -6 14 -15 14 -20z"/>
<path d="M3015 7340 c-5 -7 -33 -9 -91 -4 -61 5 -88 3 -99 -6 -26 -21 -17 -30
24 -24 22 4 54 1 71 -5 24 -8 39 -7 65 3 32 14 51 33 42 42 -3 3 -8 0 -12 -6z"/>
<path d="M2930 7138 c0 -10 19 -9 45 2 16 7 14 8 -12 7 -18 -1 -33 -5 -33 -9z"/>
<path d="M2865 7050 c-18 -8 -18 -9 5 -9 14 0 32 4 40 9 12 8 12 10 -5 9 -11
0 -29 -4 -40 -9z"/>
<path d="M3883 7753 c-22 -8 -14 -23 11 -23 14 0 36 -4 49 -9 20 -8 25 -7 23
5 -4 28 -47 42 -83 27z"/>
<path d="M3800 7606 c0 -14 29 -31 38 -21 6 6 -18 35 -29 35 -5 0 -9 -6 -9
-14z"/>
<path d="M3801 7451 c-7 -5 -11 -16 -9 -25 3 -15 5 -15 23 -2 22 16 10 41 -14
27z"/>
<path d="M2600 7466 c0 -26 23 -36 35 -16 3 6 1 10 -4 10 -6 0 -10 5 -8 11 1
6 -4 14 -10 16 -8 3 -13 -5 -13 -21z"/>
<path d="M2545 7430 c-3 -5 3 -10 14 -10 11 0 23 5 26 10 3 6 -3 10 -14 10
-11 0 -23 -4 -26 -10z"/>
<path d="M3150 6345 c7 -8 19 -15 27 -15 12 0 12 2 -1 15 -8 8 -20 15 -27 15
-9 0 -8 -4 1 -15z"/>
<path d="M5244 6617 c-4 -13 11 -67 19 -67 2 0 4 18 5 40 2 38 -13 55 -24 27z"/>
<path d="M5264 6525 c-18 -14 -18 -14 4 -8 12 3 22 9 22 14 0 12 -3 11 -26 -6z"/>
<path d="M6025 4740 c-3 -6 1 -13 10 -16 21 -9 26 -2 10 13 -9 8 -16 9 -20 3z"/>
<path d="M5482 1216 c7 -8 15 -12 17 -11 5 6 -10 25 -20 25 -5 0 -4 -6 3 -14z"/>
<path d="M5543 1179 c14 -8 22 -8 30 0 8 8 3 11 -18 11 -26 -1 -28 -2 -12 -11z"/>
<path d="M2855 8990 c-3 -5 -1 -10 4 -10 6 0 11 5 11 10 0 6 -2 10 -4 10 -3 0
-8 -4 -11 -10z"/>
<path d="M4100 8990 c0 -5 -8 -10 -19 -10 -21 0 -33 -29 -21 -51 7 -11 25 -13
80 -9 74 6 90 15 90 58 0 21 -4 22 -65 22 -37 0 -65 -4 -65 -10z"/>
<path d="M4405 8990 c4 -6 11 -8 16 -5 14 9 11 15 -7 15 -8 0 -12 -5 -9 -10z"/>
<path d="M5818 8993 c7 -3 16 -2 19 1 4 3 -2 6 -13 5 -11 0 -14 -3 -6 -6z"/>
<path d="M2475 8980 c-3 -5 -1 -10 4 -10 6 0 11 5 11 10 0 6 -2 10 -4 10 -3 0
-8 -4 -11 -10z"/>
<path d="M2550 8969 c0 -5 5 -7 10 -4 6 3 10 8 10 11 0 2 -4 4 -10 4 -5 0 -10
-5 -10 -11z"/>
<path d="M2775 8970 c-3 -5 1 -10 10 -10 9 0 13 5 10 10 -3 6 -8 10 -10 10 -2
0 -7 -4 -10 -10z"/>
<path d="M5575 8955 c-17 -84 -17 -81 -2 -65 18 19 30 77 17 85 -5 3 -12 -6
-15 -20z"/>
<path d="M5465 8961 c-3 -5 -1 -12 5 -16 5 -3 10 1 10 9 0 18 -6 21 -15 7z"/>
<path d="M2475 8950 c-3 -5 -2 -10 4 -10 5 0 13 5 16 10 3 6 2 10 -4 10 -5 0
-13 -4 -16 -10z"/>
<path d="M2858 8953 c7 -3 16 -2 19 1 4 3 -2 6 -13 5 -11 0 -14 -3 -6 -6z"/>
<path d="M2480 8919 c0 -5 5 -7 10 -4 6 3 10 8 10 11 0 2 -4 4 -10 4 -5 0 -10
-5 -10 -11z"/>
<path d="M2855 8920 c4 -6 11 -8 16 -5 14 9 11 15 -7 15 -8 0 -12 -5 -9 -10z"/>
<path d="M2550 8909 c0 -5 5 -7 10 -4 6 3 10 8 10 11 0 2 -4 4 -10 4 -5 0 -10
-5 -10 -11z"/>
<path d="M2480 8889 c0 -5 5 -7 10 -4 6 3 10 8 10 11 0 2 -4 4 -10 4 -5 0 -10
-5 -10 -11z"/>
<path d="M2855 8890 c-3 -5 -2 -10 4 -10 5 0 13 5 16 10 3 6 2 10 -4 10 -5 0
-13 -4 -16 -10z"/>
<path d="M2550 8880 c0 -5 5 -10 10 -10 6 0 10 5 10 10 0 6 -4 10 -10 10 -5 0
-10 -4 -10 -10z"/>
<path d="M5615 8870 c-7 -12 2 -30 16 -30 5 0 9 9 9 20 0 21 -15 27 -25 10z"/>
<path d="M2480 8859 c0 -5 5 -7 10 -4 6 3 10 8 10 11 0 2 -4 4 -10 4 -5 0 -10
-5 -10 -11z"/>
<path d="M5375 8839 c-4 -6 -5 -12 -2 -15 2 -3 7 2 10 11 7 17 1 20 -8 4z"/>
<path d="M2480 8829 c0 -5 5 -7 10 -4 6 3 10 8 10 11 0 2 -4 4 -10 4 -5 0 -10
-5 -10 -11z"/>
<path d="M2480 8799 c0 -5 5 -7 10 -4 6 3 10 8 10 11 0 2 -4 4 -10 4 -5 0 -10
-5 -10 -11z"/>
<path d="M5546 8802 c-6 -11 -29 -94 -31 -115 -1 -10 -7 -22 -14 -27 -11 -6
-11 -9 0 -16 18 -11 49 -13 43 -3 -2 4 4 12 13 18 10 5 15 13 11 17 -4 4 -2
12 6 18 16 13 30 76 16 76 -6 0 -10 6 -10 14 0 15 -27 29 -34 18z"/>
<path d="M2465 8770 c-18 -8 -17 -9 7 -9 15 -1 30 4 33 9 7 12 -12 12 -40 0z"/>
<path d="M5347 8727 c-9 -30 -17 -62 -17 -73 0 -11 -7 -30 -16 -42 -21 -31 -8
-46 18 -20 16 16 22 35 23 82 1 34 7 71 14 84 6 12 8 22 3 22 -5 0 -16 -24
-25 -53z"/>
<path d="M5830 8740 c0 -11 2 -20 4 -20 2 0 6 9 9 20 3 11 1 20 -4 20 -5 0 -9
-9 -9 -20z"/>
<path d="M5418 8484 c-3 -5 -9 -24 -13 -41 -8 -40 11 -45 25 -7 10 25 -1 66
-12 48z"/>
<path d="M5855 8400 c-7 -11 11 -40 25 -40 10 0 1 38 -11 45 -4 3 -11 1 -14
-5z"/>
<path d="M5316 8355 c-3 -8 -1 -15 4 -15 6 0 10 7 10 15 0 8 -2 15 -4 15 -2 0
-6 -7 -10 -15z"/>
<path d="M0 7850 c0 -27 2 -29 30 -23 19 3 30 1 30 -6 0 -6 -13 -11 -30 -11
l-30 0 0 -115 c0 -108 7 -135 27 -102 4 7 22 19 40 26 41 17 56 34 60 74 1 18
5 42 8 55 4 17 1 22 -13 22 -16 0 -35 24 -41 55 -5 18 -22 33 -52 44 -28 10
-29 9 -29 -19z"/>
<path d="M5920 7871 c0 -5 7 -12 16 -15 24 -9 27 -7 10 9 -17 17 -26 19 -26 6z"/>
<path d="M5870 7849 c0 -5 5 -7 10 -4 6 3 10 8 10 11 0 2 -4 4 -10 4 -5 0 -10
-5 -10 -11z"/>
<path d="M6073 7475 c-9 -25 4 -29 17 -6 7 15 7 21 0 21 -6 0 -13 -7 -17 -15z"/>
<path d="M73 7431 l11 -39 38 25 c40 27 42 47 3 37 -12 -3 -26 -1 -29 5 -4 6
-13 11 -20 11 -10 0 -11 -8 -3 -39z"/>
<path d="M0 7394 c0 -56 2 -65 17 -62 39 7 37 128 -2 128 -12 0 -15 -13 -15
-66z"/>
<path d="M332 7322 c-24 -2 -42 -6 -40 -10 2 -4 10 -19 17 -34 16 -31 36 -34
91 -13 29 11 31 14 12 14 -35 1 -24 34 13 42 26 6 25 6 -10 5 -22 0 -59 -2
-83 -4z"/>
<path d="M5917 7274 c-10 -13 -14 -24 -9 -24 13 0 35 27 30 39 -1 5 -11 -2
-21 -15z"/>
<path d="M5975 7279 c-10 -15 3 -25 16 -12 7 7 7 13 1 17 -6 3 -14 1 -17 -5z"/>
<path d="M6140 7010 c0 -5 5 -10 10 -10 6 0 10 5 10 10 0 6 -4 10 -10 10 -5 0
-10 -4 -10 -10z"/>
<path d="M5426 685 c-4 -15 -14 -25 -24 -25 -41 -1 -43 -12 -21 -108 12 -51
25 -92 29 -92 7 0 39 67 65 137 19 49 26 95 15 88 -6 -4 -13 1 -16 9 -10 25
-41 19 -48 -9z"/>
<path d="M3699 323 c-4 -78 -21 -157 -41 -184 -11 -15 -17 -32 -13 -38 4 -7 1
-19 -6 -28 -11 -13 -10 -17 4 -28 9 -7 17 -20 17 -29 0 -14 20 -16 185 -16
104 0 185 4 185 9 0 5 -20 34 -45 64 -25 31 -45 61 -45 68 0 6 -15 28 -34 49
-18 20 -37 44 -42 52 -5 8 -33 33 -62 56 -57 44 -101 55 -103 25z m16 -263 c3
-5 1 -10 -4 -10 -6 0 -11 5 -11 10 0 6 2 10 4 10 3 0 8 -4 11 -10z"/>
<path d="M2383 205 c0 -22 2 -30 4 -17 2 12 2 30 0 40 -3 9 -5 -1 -4 -23z"/>
<path d="M5269 53 c-8 -9 -27 -24 -44 -35 l-30 -18 46 0 c48 0 59 9 59 51 0
23 -13 24 -31 2z"/>
</g>
</svg>
